<svg width="300" height="245" viewBox="0 0 300 245" fill="none" xmlns="http://www.w3.org/2000/svg">
<path d="M247.486 35.8252C247.486 35.8252 224.226 2.49229 185.616 0.13838C147.005 -2.21553 125.47 25.9542 109.665 47.0854C93.8601 68.2166 46.0121 55.9994 17.0362 88.3985C-11.9396 120.798 2.11168 139.567 14.8712 158.344C27.6306 177.122 39.8344 179.962 39.8344 195.444C39.8344 210.925 46.8636 231.593 74.5188 236.286C102.174 240.978 130.71 212.361 150.462 223.166C170.215 233.97 203.362 242.414 223.67 236.286C243.979 230.158 237.823 207.645 259.755 200.136C281.687 192.627 302.775 169.149 299.7 143.796C296.626 118.444 279.067 113.751 271.605 89.34C264.143 64.9288 253.635 46.1516 247.486 35.8252Z" fill="#4CB599"/>
<path opacity="0.7" d="M247.486 35.8252C247.486 35.8252 224.226 2.49229 185.616 0.13838C147.005 -2.21553 125.47 25.9542 109.665 47.0854C93.8601 68.2166 46.0121 55.9994 17.0362 88.3985C-11.9396 120.798 2.11168 139.567 14.8712 158.344C27.6306 177.122 39.8344 179.962 39.8344 195.444C39.8344 210.925 46.8636 231.593 74.5188 236.286C102.174 240.978 130.71 212.361 150.462 223.166C170.215 233.97 203.362 242.414 223.67 236.286C243.979 230.158 237.823 207.645 259.755 200.136C281.687 192.627 302.775 169.149 299.7 143.796C296.626 118.444 279.067 113.751 271.605 89.34C264.143 64.9288 253.635 46.1516 247.486 35.8252Z" fill="white"/>
<path d="M273.936 241.565C273.936 242.931 233.521 244.035 183.725 244.035C133.928 244.035 93.5137 242.931 93.5137 241.565C93.5137 240.199 133.928 239.103 183.725 239.103C233.521 239.103 273.936 240.207 273.936 241.565Z" fill="#2E353A"/>
<path d="M202.561 12.6797H117.799C115.16 12.6797 113.021 14.9672 113.021 17.7889V53.2211C113.021 56.0428 115.16 58.3302 117.799 58.3302H202.561C205.2 58.3302 207.339 56.0428 207.339 53.2211V17.7889C207.339 14.9672 205.2 12.6797 202.561 12.6797Z" fill="#4CB599"/>
<path d="M113.021 50.3037V66.7811L121.616 56.2" fill="#4CB599"/>
<path d="M202.569 12.6797H117.777C117.15 12.6797 116.529 12.812 115.95 13.0688C115.371 13.3257 114.845 13.7021 114.401 14.1767C113.958 14.6512 113.607 15.2145 113.368 15.8343C113.129 16.4541 113.006 17.1183 113.007 17.7889V66.7811L119.877 58.3302H202.569C203.196 58.3302 203.816 58.198 204.396 57.9411C204.975 57.6843 205.501 57.3078 205.944 56.8333C206.387 56.3588 206.739 55.7955 206.978 55.1756C207.217 54.5558 207.34 53.8916 207.339 53.221V17.7889C207.34 17.1183 207.217 16.4541 206.978 15.8343C206.739 15.2145 206.387 14.6512 205.944 14.1767C205.501 13.7021 204.975 13.3257 204.396 13.0688C203.816 12.812 203.196 12.6797 202.569 12.6797Z" fill="#4CB599"/>
<path opacity="0.1" d="M202.569 12.6797H117.777C117.15 12.6797 116.529 12.812 115.95 13.0688C115.371 13.3257 114.845 13.7021 114.401 14.1767C113.958 14.6512 113.607 15.2145 113.368 15.8343C113.129 16.4541 113.006 17.1183 113.007 17.7889V66.7811L119.877 58.3302H202.569C203.196 58.3302 203.816 58.198 204.396 57.9411C204.975 57.6843 205.501 57.3078 205.944 56.8333C206.387 56.3588 206.739 55.7955 206.978 55.1756C207.217 54.5558 207.34 53.8916 207.339 53.221V17.7889C207.34 17.1183 207.217 16.4541 206.978 15.8343C206.739 15.2145 206.387 14.6512 205.944 14.1767C205.501 13.7021 204.975 13.3257 204.396 13.0688C203.816 12.812 203.196 12.6797 202.569 12.6797Z" fill="#4CB599"/>
<path d="M185.616 37.7238H124.712C124.261 37.7238 123.828 37.5319 123.508 37.1903C123.189 36.8487 123.009 36.3854 123.009 35.9024C123.011 35.4206 123.191 34.9593 123.511 34.6194C123.83 34.2795 124.262 34.0887 124.712 34.0887H185.616C186.066 34.0887 186.498 34.2795 186.818 34.6194C187.137 34.9593 187.317 35.4206 187.319 35.9024C187.319 36.1416 187.275 36.3784 187.189 36.5994C187.104 36.8204 186.978 37.0212 186.82 37.1903C186.662 37.3594 186.474 37.4936 186.268 37.5851C186.061 37.6766 185.84 37.7238 185.616 37.7238Z" fill="white"/>
<path d="M185.616 46.0898H124.712C124.489 46.0898 124.267 46.0427 124.061 45.9512C123.854 45.8596 123.666 45.7255 123.508 45.5563C123.35 45.3872 123.225 45.1864 123.139 44.9654C123.053 44.7445 123.009 44.5076 123.009 44.2684C123.011 43.7867 123.191 43.3254 123.511 42.9855C123.83 42.6456 124.262 42.4548 124.712 42.4548H185.616C186.066 42.4548 186.498 42.6456 186.818 42.9855C187.137 43.3254 187.317 43.7867 187.319 44.2684C187.319 44.5076 187.275 44.7445 187.189 44.9654C187.104 45.1864 186.978 45.3872 186.82 45.5563C186.662 45.7255 186.474 45.8596 186.268 45.9512C186.061 46.0427 185.84 46.0898 185.616 46.0898Z" fill="white"/>
<path d="M128.112 29.3577C131.492 29.3577 134.232 26.4275 134.232 22.813C134.232 19.1985 131.492 16.2684 128.112 16.2684C124.732 16.2684 121.992 19.1985 121.992 22.813C121.992 26.4275 124.732 29.3577 128.112 29.3577Z" fill="white"/>
<path d="M202.561 74.4602H117.799C115.16 74.4602 113.021 76.7477 113.021 79.5694V115.002C113.021 117.823 115.16 120.111 117.799 120.111H202.561C205.2 120.111 207.339 117.823 207.339 115.002V79.5694C207.339 76.7477 205.2 74.4602 202.561 74.4602Z" fill="#4CB599"/>
<path d="M113.021 112.077V128.562L121.616 117.973" fill="#4CB599"/>
<path d="M202.568 74.4602H117.777C116.512 74.4602 115.299 74.9977 114.404 75.9544C113.509 76.9111 113.007 78.2087 113.007 79.5617V128.562L119.877 120.072H202.568C203.834 120.072 205.047 119.535 205.942 118.578C206.836 117.621 207.339 116.324 207.339 114.971V79.5617C207.339 78.2087 206.836 76.9111 205.942 75.9544C205.047 74.9977 203.834 74.4602 202.568 74.4602Z" fill="#4CB599"/>
<path opacity="0.1" d="M202.568 74.4602H117.777C116.512 74.4602 115.299 74.9977 114.404 75.9544C113.509 76.9111 113.007 78.2087 113.007 79.5617V128.562L119.877 120.072H202.568C203.834 120.072 205.047 119.535 205.942 118.578C206.836 117.621 207.339 116.324 207.339 114.971V79.5617C207.339 78.2087 206.836 76.9111 205.942 75.9544C205.047 74.9977 203.834 74.4602 202.568 74.4602Z" fill="#4CB599"/>
<path d="M185.616 99.4966H124.712C124.262 99.4966 123.83 99.3058 123.511 98.9659C123.191 98.6259 123.011 98.1647 123.009 97.6829C123.009 97.1999 123.189 96.7366 123.508 96.395C123.828 96.0534 124.261 95.8615 124.712 95.8615H185.616C185.84 95.8615 186.061 95.9087 186.268 96.0002C186.474 96.0917 186.662 96.2259 186.82 96.395C186.978 96.5641 187.104 96.7649 187.189 96.9859C187.275 97.2069 187.319 97.4437 187.319 97.6829C187.317 98.1647 187.137 98.6259 186.818 98.9659C186.498 99.3058 186.066 99.4966 185.616 99.4966Z" fill="white"/>
<path d="M185.616 107.863H124.712C124.262 107.863 123.83 107.672 123.511 107.332C123.191 106.992 123.011 106.531 123.009 106.049C123.009 105.566 123.189 105.103 123.508 104.761C123.828 104.419 124.261 104.227 124.712 104.227H185.616C185.84 104.227 186.061 104.275 186.268 104.366C186.474 104.458 186.662 104.592 186.82 104.761C186.978 104.93 187.104 105.131 187.189 105.352C187.275 105.573 187.319 105.81 187.319 106.049C187.317 106.531 187.137 106.992 186.818 107.332C186.498 107.672 186.066 107.863 185.616 107.863Z" fill="white"/>
<path d="M128.112 91.1305C131.492 91.1305 134.232 88.2004 134.232 84.5859C134.232 80.9714 131.492 78.0412 128.112 78.0412C124.732 78.0412 121.992 80.9714 121.992 84.5859C121.992 88.2004 124.732 91.1305 128.112 91.1305Z" fill="white"/>
<path d="M47.5204 164.912C47.4554 164.912 47.1668 160.073 47.1812 159.764C47.3472 156.191 49.6421 149.384 53.2722 148.35C53.8782 148.195 54.5079 148.179 55.1203 148.301C55.7326 148.424 56.3138 148.684 56.8259 149.064C57.3381 149.443 57.7696 149.934 58.0924 150.504C58.4152 151.073 58.6221 151.71 58.6994 152.371C59.1179 155.165 57.4147 158.144 55.6899 160.089C53.6547 162.342 47.5204 164.912 47.5204 164.912Z" fill="#2E353A"/>
<path d="M42.786 146.266C42.721 146.266 43.1179 141.435 43.1757 141.126C43.8541 137.622 47.0872 131.263 50.8112 130.831C51.4322 130.776 52.0571 130.862 52.645 131.083C53.2329 131.304 53.7707 131.655 54.2234 132.113C54.6762 132.571 55.0336 133.126 55.2726 133.741C55.5116 134.356 55.6267 135.019 55.6104 135.685C55.6104 138.517 53.5247 141.188 51.5473 142.816C49.2162 144.73 42.786 146.266 42.786 146.266Z" fill="#2E353A"/>
<path d="M41.5881 124.263C41.5231 124.263 41.9273 119.432 41.985 119.123C42.6562 115.619 45.8894 109.26 49.6205 108.827C50.2413 108.773 50.8658 108.859 51.4533 109.08C52.0409 109.301 52.5783 109.652 53.0304 110.11C53.4826 110.568 53.8394 111.123 54.0775 111.738C54.3157 112.354 54.4298 113.016 54.4125 113.682C54.4125 116.514 52.3341 119.177 50.3494 120.813C48.0184 122.727 41.5953 124.263 41.5881 124.263Z" fill="#2E353A"/>
<path d="M39.5168 103.556C39.4519 103.556 39.856 98.7171 39.9137 98.4161C40.5849 94.9045 43.8181 88.5528 47.5492 88.1129C48.1703 88.0595 48.795 88.1467 49.3826 88.3686C49.9701 88.5905 50.5074 88.9422 50.9594 89.4008C51.4115 89.8595 51.7681 90.4148 52.0062 91.0306C52.2443 91.6464 52.3584 92.3089 52.3412 92.9751C52.3412 95.7998 50.2628 98.4701 48.2781 100.099C45.9471 102.013 39.524 103.556 39.5168 103.556Z" fill="#2E353A"/>
<path d="M33.3392 86.9398C33.2814 86.9398 32.4731 82.178 32.4515 81.8693C32.235 78.2959 33.7866 71.2497 37.2724 69.7833C37.8577 69.5548 38.4814 69.4609 39.103 69.5076C39.7245 69.5544 40.3298 69.7408 40.8794 70.0547C41.429 70.3686 41.9106 70.8029 42.2926 71.3293C42.6746 71.8557 42.9485 72.4624 43.0964 73.1096C43.8181 75.834 42.4469 78.9983 40.9313 81.1284C39.1704 83.6366 33.3392 86.9398 33.3392 86.9398Z" fill="#2E353A"/>
<path d="M45.608 164.966C45.6802 164.966 43.71 160.559 43.5512 160.297C41.7686 157.272 36.6518 152.533 33.0217 153.529C32.4233 153.711 31.8675 154.027 31.3907 154.455C30.9139 154.883 30.5267 155.413 30.2543 156.012C29.982 156.61 29.8306 157.263 29.81 157.928C29.7895 158.594 29.9002 159.256 30.135 159.873C31.0443 162.535 33.8878 164.241 36.2838 165.02C39.1128 165.939 45.608 164.966 45.608 164.966Z" fill="#2E353A"/>
<path d="M41.8187 143.773C41.8908 143.773 39.3144 139.729 39.1268 139.498C36.9617 136.789 31.1882 132.938 27.7602 134.504C27.1929 134.781 26.6866 135.183 26.2744 135.683C25.8622 136.183 25.5534 136.771 25.3681 137.407C25.1829 138.044 25.1253 138.715 25.1992 139.377C25.2732 140.04 25.4769 140.677 25.7972 141.25C27.0673 143.727 30.1273 144.954 32.6027 145.34C35.5039 145.788 41.8187 143.773 41.8187 143.773Z" fill="#2E353A"/>
<path d="M40.7294 123.013C40.7943 123.013 38.2251 118.968 38.0375 118.737C35.8724 116.028 30.0989 112.177 26.6636 113.751C26.0903 114.026 25.578 114.428 25.1607 114.93C24.7434 115.433 24.4306 116.024 24.243 116.665C24.0554 117.307 23.9972 117.983 24.0724 118.65C24.1476 119.317 24.3543 119.96 24.679 120.535C25.9564 123.013 29.0091 124.24 31.4917 124.618C34.4146 125.035 40.7294 123.02 40.7294 123.013Z" fill="#2E353A"/>
<path d="M38.8602 103.965C38.9323 103.965 36.3559 99.921 36.1683 99.6895C34.0032 96.9806 28.2297 93.1294 24.8017 94.6961C24.2344 94.9728 23.7281 95.3745 23.3159 95.8747C22.9037 96.375 22.5949 96.9627 22.4096 97.5993C22.2244 98.236 22.1668 98.9073 22.2407 99.5693C22.3147 100.231 22.5184 100.869 22.8387 101.441C24.1088 103.927 27.1688 105.146 29.6442 105.532C32.5454 105.979 38.8602 103.965 38.8602 103.965Z" fill="#2E353A"/>
<path d="M33.3824 87.565C33.4474 87.565 30.4957 83.845 30.2647 83.6289C27.811 81.1978 21.7199 78.0413 18.4507 80.0093C17.9139 80.3511 17.4508 80.8104 17.0918 81.3571C16.7327 81.9038 16.4858 82.5254 16.3672 83.1813C16.2486 83.8373 16.2611 84.5126 16.4037 85.163C16.5464 85.8134 16.816 86.4242 17.1949 86.9553C18.7177 89.2706 21.8787 90.135 24.4118 90.2199C27.313 90.3125 33.3824 87.5727 33.3824 87.565Z" fill="#2E353A"/>
<path d="M25.5089 74.0126C25.5739 74.0126 24.5346 69.2739 24.4408 68.9807C23.3077 65.608 19.2663 59.812 15.5135 59.9432C14.8915 59.9836 14.2844 60.1636 13.7318 60.4715C13.1792 60.7795 12.6933 61.2084 12.306 61.7304C11.9186 62.2524 11.6384 62.8558 11.4835 63.5012C11.3286 64.1467 11.3026 64.8199 11.4071 65.4768C11.7679 68.2861 14.2 70.6014 16.3795 71.9134C18.9415 73.457 25.5017 74.0126 25.5089 74.0126Z" fill="#2E353A"/>
<path d="M53.8277 189.918C53.8277 189.918 53.0555 188.027 51.8431 184.716C50.6306 181.405 48.9563 176.628 47.181 170.824C46.2933 167.922 45.3912 164.758 44.5107 161.385C44.0633 159.687 43.6591 157.982 43.2189 156.153C43.0312 155.257 42.8508 154.354 42.6632 153.444C42.4755 152.533 42.3456 151.568 42.1869 150.619C41.6172 146.726 41.2486 142.802 41.0827 138.865C40.9023 134.859 40.8301 130.807 40.7363 126.756C40.6425 122.704 40.5486 118.667 40.2455 114.716C39.9812 110.846 39.4627 107.001 38.6939 103.209C37.9195 99.6772 36.852 96.2266 35.504 92.8979C34.3002 89.9031 32.9339 86.986 31.412 84.1615C30.0192 81.5143 28.5902 79.1912 27.3128 77.1383C26.0355 75.0854 24.8375 73.3566 23.8343 71.9443C21.828 69.1196 20.5723 67.6069 20.5723 67.6069C20.5723 67.6069 21.8569 69.0964 23.9281 71.8671C24.9529 73.264 26.1798 74.9542 27.5366 76.9917C28.8933 79.0292 30.3367 81.3136 31.7873 83.9376C33.3869 86.7449 34.8327 89.6491 36.1175 92.6355C37.557 95.9721 38.7186 99.4379 39.5888 102.993C40.4454 106.801 41.0506 110.67 41.4002 114.569C41.7827 118.559 41.9776 122.619 42.1219 126.671C42.2663 130.723 42.4467 134.759 42.7065 138.718C42.9497 142.579 43.3881 146.423 44.02 150.233C44.2004 151.151 44.3086 152.047 44.5324 152.957C44.7561 153.868 44.9437 154.763 45.1458 155.651C45.5932 157.341 46.0479 159.101 46.5242 160.745C47.4552 164.055 48.4151 167.166 49.3532 170.006C51.2152 175.717 52.9617 180.394 54.2391 183.651C55.5165 186.908 56.3031 188.714 56.3031 188.714C56.4221 189.047 56.4184 189.417 56.2928 189.748C56.1672 190.079 55.929 190.347 55.6262 190.497C55.3233 190.648 54.9784 190.67 54.6608 190.56C54.3431 190.45 54.0764 190.214 53.9143 189.902L53.8277 189.918Z" fill="#2E353A"/>
<path d="M70.8238 160.004C70.7588 160.004 71.7764 155.257 71.8702 154.964C72.9816 151.591 76.9942 145.764 80.7398 145.872C81.3618 145.908 81.9698 146.084 82.5242 146.387C83.0785 146.691 83.5667 147.117 83.9569 147.636C84.3471 148.155 84.6306 148.757 84.7888 149.401C84.947 150.045 84.9764 150.718 84.8751 151.375C84.5359 154.184 82.1182 156.523 79.9459 157.85C77.3623 159.409 70.8671 160.004 70.8238 160.004Z" fill="#2E353A"/>
<path d="M71.2426 140.694C71.1776 140.694 72.8519 136.156 72.9891 135.886C74.5696 132.722 79.3543 127.612 83.0422 128.33C83.6522 128.467 84.2285 128.739 84.7335 129.129C85.2386 129.52 85.6612 130.019 85.9736 130.596C86.2861 131.173 86.4816 131.813 86.5472 132.476C86.6129 133.139 86.5473 133.809 86.3547 134.443C85.6331 137.167 82.8979 139.073 80.5812 140.038C77.8172 141.165 71.2498 140.694 71.2426 140.694Z" fill="#2E353A"/>
<path d="M75.9188 119.231C75.8466 119.231 77.5209 114.693 77.658 114.423C79.2385 111.266 84.0306 106.157 87.7184 106.867C88.3286 107.004 88.9049 107.277 89.4098 107.669C89.9146 108.06 90.3368 108.561 90.6486 109.138C90.9605 109.716 91.155 110.357 91.2197 111.02C91.2843 111.683 91.2175 112.353 91.0237 112.987C90.302 115.704 87.5668 117.618 85.2502 118.583C82.5222 119.709 75.9188 119.231 75.9188 119.231Z" fill="#2E353A"/>
<path d="M79.4622 98.7557C79.3901 98.7557 81.0644 94.2254 81.2015 93.9475C82.782 90.791 87.574 85.6818 91.2618 86.3996C91.8718 86.5358 92.448 86.8081 92.9528 87.1986C93.4577 87.5891 93.8798 88.0891 94.1918 88.6659C94.5037 89.2427 94.6983 89.8834 94.763 90.5462C94.8277 91.2089 94.761 91.8787 94.5672 92.512C93.8455 95.2364 91.1103 97.1427 88.7937 98.1074C86.0224 99.2342 79.4622 98.7557 79.4622 98.7557Z" fill="#2E353A"/>
<path d="M77.9686 80.9354C77.8964 80.9354 78.3944 76.1118 78.4593 75.8108C79.181 72.3147 82.5585 66.0324 86.2969 65.6851C86.9186 65.6454 87.5412 65.746 88.1242 65.9805C88.7072 66.215 89.2374 66.5781 89.6806 67.0462C90.1237 67.5142 90.4698 68.0768 90.6962 68.6973C90.9227 69.3178 91.0245 69.9823 90.9951 70.6476C90.9951 73.48 88.83 76.0964 86.7948 77.6785C84.4277 79.5385 77.9686 80.9354 77.9686 80.9354Z" fill="#2E353A"/>
<path d="M69.0053 159.479C69.0702 159.479 68.3486 154.678 68.2836 154.385C67.3815 150.935 63.737 144.838 59.9914 144.684C59.3678 144.676 58.7498 144.81 58.1775 145.075C57.6052 145.34 57.0916 145.731 56.6702 146.222C56.2487 146.714 55.9288 147.295 55.7313 147.927C55.5338 148.56 55.4633 149.23 55.5241 149.893C55.6901 152.718 57.9634 155.219 60.0491 156.693C62.4884 158.429 68.9981 159.479 69.0053 159.479Z" fill="#2E353A"/>
<path d="M70.9825 138.008C71.0547 138.008 69.6546 133.377 69.5391 133.084C68.1535 129.82 63.6862 124.386 59.9623 124.842C59.3452 124.936 58.7536 125.168 58.226 125.523C57.6984 125.878 57.2466 126.348 56.9 126.902C56.5535 127.456 56.32 128.082 56.2147 128.739C56.1094 129.396 56.1347 130.069 56.2889 130.715C56.8518 133.478 59.4571 135.585 61.7232 136.704C64.3718 138.024 70.9753 138.008 70.9825 138.008Z" fill="#2E353A"/>
<path d="M75.457 117.772C75.5219 117.772 74.1291 113.142 74.0136 112.848C72.6352 109.591 68.1679 104.158 64.444 104.613C63.8247 104.706 63.2308 104.938 62.7011 105.294C62.1714 105.649 61.718 106.12 61.3705 106.676C61.023 107.232 60.7892 107.86 60.6846 108.52C60.58 109.179 60.6068 109.855 60.7634 110.502C61.3335 113.273 63.9316 115.372 66.2049 116.491C68.868 117.788 75.4498 117.772 75.457 117.772Z" fill="#2E353A"/>
<path d="M78.7261 98.9255C78.7983 98.9255 77.3982 94.2949 77.2827 94.0016C75.8971 90.7447 71.4371 85.3037 67.7059 85.7667C67.0891 85.8599 66.4977 86.0911 65.9701 86.4452C65.4425 86.7994 64.9906 87.2685 64.644 87.8219C64.2973 88.3754 64.0637 89.0008 63.9584 89.6574C63.853 90.3139 63.8783 90.9868 64.0325 91.6322C64.5954 94.4029 67.2007 96.5021 69.4741 97.6212C72.1371 98.9255 78.7261 98.9255 78.7261 98.9255Z" fill="#2E353A"/>
<path d="M77.8316 81.5528C77.9038 81.5528 76.0419 77.0997 75.8903 76.8296C74.1799 73.7425 69.1858 68.8726 65.5268 69.7678C64.923 69.9332 64.3586 70.2329 63.8705 70.6473C63.3824 71.0618 62.9815 71.5818 62.6941 72.1732C62.4067 72.7646 62.2392 73.4142 62.2025 74.0796C62.1658 74.745 62.2608 75.4112 62.4813 76.0346C63.3257 78.7127 66.1258 80.4955 68.5002 81.3444C71.2859 82.34 77.8316 81.5528 77.8316 81.5528Z" fill="#2E353A"/>
<path d="M73.8909 66.1637C73.9486 66.1637 74.2157 61.3247 74.194 61.016C74.0064 57.435 71.6753 50.6433 68.0452 49.6323C67.4381 49.4824 66.8083 49.4708 66.1968 49.5984C65.5853 49.726 65.0057 49.9898 64.4958 50.3728C63.9859 50.7557 63.5571 51.2491 63.2373 51.821C62.9176 52.3928 62.714 53.0303 62.6398 53.6918C62.2356 56.4934 63.9532 59.457 65.6925 61.4096C67.7349 63.6323 73.8837 66.156 73.8909 66.1637Z" fill="#2E353A"/>
<path d="M70.232 185.897C70.232 185.897 69.9866 183.851 69.7051 180.301C69.4237 176.751 69.0845 171.673 68.9329 165.568C68.8536 162.481 68.8247 159.209 68.8824 155.705C68.8824 153.945 68.969 152.186 69.034 150.302C69.0917 149.392 69.1567 148.466 69.2144 147.539C69.2721 146.613 69.4165 145.641 69.5103 144.684C70.005 140.788 70.6964 136.923 71.5815 133.107C72.4692 129.21 73.4796 125.297 74.4683 121.392C75.457 117.487 76.4313 113.581 77.1963 109.692C77.9709 105.903 78.4943 102.06 78.7623 98.1922C78.9481 94.5688 78.8321 90.9349 78.4159 87.3334C78.0594 84.0944 77.5244 80.8809 76.8138 77.7094C76.1787 74.7457 75.4354 72.0831 74.757 69.7292C74.0786 67.3753 73.3785 65.3455 72.8012 63.6939C71.6248 60.3753 70.8238 58.5385 70.8238 58.5385C70.8238 58.5385 71.6609 60.3599 72.9022 63.6476C73.5229 65.2915 74.2374 67.3058 74.9879 69.6443C75.7385 71.9828 76.5179 74.6454 77.2107 77.6013C77.9899 80.7765 78.5948 83.9977 79.0222 87.2485C79.5188 90.8863 79.712 94.5641 79.5995 98.2385C79.4067 102.162 78.9557 106.067 78.2499 109.923C77.5283 113.859 76.6622 117.811 75.7457 121.747C74.8291 125.683 73.9054 129.603 73.1043 133.478C72.3087 137.252 71.7064 141.071 71.3001 144.915C71.2279 145.849 71.098 146.737 71.0691 147.678C71.0403 148.62 70.9825 149.538 70.9392 150.449C70.9392 152.209 70.8887 154.03 70.9392 155.751C70.9392 159.216 71.0475 162.489 71.1918 165.506C71.4588 171.549 71.9135 176.574 72.2527 180.07C72.5919 183.566 72.8806 185.557 72.8806 185.557C72.9057 185.74 72.8969 185.926 72.8546 186.106C72.8123 186.285 72.7375 186.454 72.6343 186.602C72.5311 186.75 72.4016 186.876 72.2531 186.97C72.1047 187.065 71.9402 187.128 71.7692 187.155C71.5981 187.182 71.4238 187.172 71.2561 187.127C71.0885 187.082 70.9308 187.002 70.792 186.891C70.6533 186.781 70.5363 186.642 70.4476 186.484C70.359 186.325 70.3004 186.149 70.2753 185.966V185.928L70.232 185.897Z" fill="#2E353A"/>
<path d="M78.6033 236.926H48.047L39.4517 183.412H87.1986L78.6033 236.926Z" fill="#2E353A"/>
<path d="M132.427 241.989C169.124 241.989 198.873 210.176 198.873 170.932C198.873 131.688 169.124 99.8748 132.427 99.8748C95.7298 99.8748 65.981 131.688 65.981 170.932C65.981 210.176 95.7298 241.989 132.427 241.989Z" fill="#4CB599"/>
<path d="M132.427 242.344C119.22 242.344 106.309 238.156 95.3275 230.309C84.346 222.462 75.7869 211.309 70.7326 198.26C65.6783 185.211 64.3559 170.853 66.9326 157C69.5092 143.148 75.8692 130.423 85.2082 120.436C94.5473 110.449 106.446 103.647 119.4 100.892C132.353 98.1365 145.78 99.5507 157.982 104.956C170.184 110.361 180.614 119.514 187.951 131.258C195.289 143.001 199.205 156.808 199.205 170.932C199.184 189.865 192.142 208.016 179.623 221.403C167.105 234.791 150.132 242.322 132.427 242.344ZM132.427 100.222C119.35 100.222 106.566 104.369 95.6924 112.139C84.8188 119.909 76.3439 130.952 71.3394 143.873C66.3348 156.793 65.0254 171.01 67.5767 184.727C70.128 198.443 76.4254 211.043 85.6726 220.932C94.9198 230.821 106.702 237.555 119.528 240.283C132.354 243.012 145.649 241.611 157.731 236.26C169.813 230.908 180.14 221.845 187.405 210.216C194.671 198.588 198.549 184.917 198.549 170.932C198.531 152.184 191.56 134.21 179.163 120.953C166.767 107.696 149.959 100.24 132.427 100.222Z" fill="#2E353A"/>
<path d="M222.79 111.173C222.79 111.173 220.625 115.48 220.307 116.082C219.99 116.684 218.828 119.941 219.174 120.713C219.521 121.484 219.853 121.924 220.538 122.048C221.224 122.171 221.787 123.506 222.92 123.746C223.633 123.897 224.358 123.979 225.085 123.993C225.263 124.133 225.469 124.227 225.687 124.269C225.904 124.31 226.128 124.298 226.341 124.232C227.019 123.993 227.589 123.63 228.044 121.562C228.321 120.537 228.398 119.462 228.267 118.405L228.065 114.23L222.79 111.173Z" fill="white"/>
<path d="M225.937 124.68C225.594 124.675 225.259 124.568 224.97 124.371C224.257 124.35 223.547 124.265 222.848 124.116C222.199 123.927 221.619 123.535 221.181 122.989C220.986 122.74 220.739 122.545 220.459 122.418C220.088 122.33 219.744 122.141 219.46 121.871C219.176 121.601 218.961 121.258 218.835 120.875C218.366 119.879 219.73 116.337 219.983 115.889C220.315 115.295 222.436 111.035 222.458 110.988C222.505 110.899 222.583 110.833 222.675 110.803C222.763 110.765 222.861 110.765 222.949 110.803L228.217 113.852C228.271 113.885 228.317 113.932 228.349 113.988C228.382 114.045 228.401 114.109 228.405 114.176L228.607 118.343C228.739 119.437 228.658 120.549 228.369 121.608C227.921 123.669 227.337 124.24 226.427 124.564C226.271 124.63 226.105 124.669 225.937 124.68ZM222.942 111.698C222.422 112.732 220.906 115.766 220.618 116.283C220.221 116.985 219.268 120.049 219.492 120.527C219.853 121.299 220.127 121.577 220.596 121.662C221.023 121.797 221.403 122.066 221.686 122.434C222.027 122.873 222.481 123.195 222.992 123.36C223.68 123.502 224.378 123.582 225.078 123.599C225.161 123.599 225.243 123.629 225.309 123.684C225.438 123.784 225.587 123.853 225.745 123.883C225.902 123.914 226.064 123.907 226.218 123.861C226.716 123.684 227.236 123.499 227.661 121.469C227.923 120.497 228 119.479 227.885 118.474L227.69 114.461L222.942 111.698Z" fill="#2E353A"/>
<path d="M235.304 227.133C235.304 227.133 232.222 232.497 232.222 233.793C232.222 235.09 236.466 237.474 238.284 238.339C240.103 239.203 243.336 239.882 245.963 240.284C248.59 240.685 254.046 241.827 252.458 239.635C250.871 237.444 241.113 231.671 240.709 230.984C240.209 230.342 239.648 229.758 239.035 229.24L235.304 227.133Z" fill="white"/>
<path d="M251.145 241.318C249.605 241.251 248.071 241.068 246.555 240.77L245.906 240.662C242.24 240.06 239.627 239.396 238.141 238.686C237.881 238.563 231.862 235.684 231.862 233.793C231.862 232.427 234.676 227.488 234.994 226.924C235.043 226.842 235.119 226.782 235.207 226.757C235.295 226.731 235.389 226.741 235.47 226.785L239.201 228.9C239.871 229.448 240.479 230.077 241.013 230.775C241.186 230.991 242.774 232.056 244.311 233.091C247.587 235.275 251.658 237.999 252.711 239.404C253.094 239.913 253.188 240.353 252.986 240.716C252.784 241.078 252.149 241.318 251.145 241.318ZM235.413 227.642C234.243 229.71 232.562 232.975 232.562 233.816C232.562 234.657 235.651 236.695 238.408 238.007C239.851 238.686 242.391 239.327 246 239.921L246.642 240.029C247.97 240.253 252.011 240.94 252.343 240.338C252.343 240.338 252.343 240.183 252.127 239.898C251.153 238.593 246.967 235.792 243.907 233.723C241.446 232.08 240.565 231.478 240.385 231.192C239.906 230.581 239.369 230.025 238.783 229.533L235.413 227.642Z" fill="#2E353A"/>
<path d="M240.132 235.584L241.214 237.312C242.379 239.201 243.96 240.755 245.819 241.835C248.706 243.502 253.151 245.408 257.034 244.266C263.399 242.391 247.378 232.057 247.378 232.057C247.378 232.057 241.669 236.301 240.132 235.584Z" fill="white"/>
<path d="M254.508 244.999C251.304 244.999 248.013 243.564 245.646 242.174C243.738 241.067 242.112 239.477 240.911 237.544L239.829 235.807C239.784 235.741 239.759 235.662 239.759 235.58C239.759 235.498 239.784 235.418 239.829 235.352C239.88 235.288 239.948 235.242 240.025 235.223C240.102 235.203 240.182 235.211 240.255 235.244C241.186 235.676 244.845 233.461 247.147 231.756C247.204 231.714 247.272 231.691 247.342 231.691C247.411 231.691 247.479 231.714 247.536 231.756C248.742 232.527 259.307 239.473 258.853 242.993C258.751 243.764 258.131 244.351 257.106 244.66C256.258 244.897 255.384 245.011 254.508 244.999ZM240.839 236.016L241.51 237.104C242.645 238.936 244.181 240.443 245.985 241.495C248.929 243.193 253.202 244.991 256.94 243.896C258.066 243.556 258.138 243.031 258.16 242.861C258.484 240.338 250.676 234.665 247.385 232.52C246.237 233.338 242.788 235.769 240.839 236.016Z" fill="#2E353A"/>
<path d="M241.965 236.402C243.719 239.238 246.376 241.298 249.442 242.198C254.674 243.795 256.175 243.394 257.294 241.796" fill="white"/>
<path d="M254.436 243.602C252.705 243.497 250.995 243.15 249.348 242.568C246.185 241.654 243.447 239.528 241.655 236.594C241.631 236.551 241.615 236.503 241.608 236.453C241.601 236.403 241.604 236.352 241.616 236.303C241.628 236.254 241.65 236.208 241.679 236.168C241.708 236.128 241.744 236.094 241.785 236.07C241.869 236.019 241.967 236.005 242.061 236.031C242.154 236.057 242.233 236.12 242.283 236.209C243.999 238.948 246.574 240.941 249.543 241.827C254.646 243.371 256.038 242.985 257.005 241.565C257.064 241.485 257.149 241.432 257.244 241.417C257.338 241.403 257.433 241.428 257.511 241.488C257.587 241.549 257.638 241.64 257.651 241.742C257.665 241.843 257.64 241.946 257.583 242.028C257.229 242.558 256.754 242.981 256.203 243.257C255.652 243.532 255.043 243.651 254.436 243.602Z" fill="#2E353A"/>
<path d="M232.619 232.805C232.619 232.805 238.393 237.227 241.214 237.312L232.619 232.805Z" fill="white"/>
<path d="M241.186 237.698C238.299 237.613 232.634 233.299 232.396 233.122C232.32 233.06 232.269 232.969 232.254 232.869C232.239 232.768 232.262 232.665 232.316 232.581C232.343 232.54 232.377 232.504 232.417 232.477C232.456 232.45 232.501 232.432 232.547 232.423C232.593 232.414 232.641 232.416 232.687 232.427C232.733 232.438 232.776 232.459 232.814 232.489C232.872 232.535 238.537 236.849 241.208 236.926C241.304 236.93 241.395 236.975 241.461 237.05C241.527 237.125 241.563 237.225 241.561 237.328C241.559 237.378 241.548 237.428 241.528 237.474C241.508 237.52 241.48 237.562 241.445 237.596C241.411 237.631 241.37 237.657 241.325 237.675C241.281 237.692 241.233 237.7 241.186 237.698Z" fill="#2E353A"/>
<path d="M220.084 112.655C220.084 112.655 225.208 121.739 226.305 123.846C227.402 125.953 241.229 142.863 246.714 157.418C252.199 171.974 257.475 185.109 257.251 189.339C257.027 193.568 239.021 229.24 239.021 229.24L235.29 227.133C235.29 227.133 240.991 193.56 240.342 190.041C239.692 186.522 219.535 151.545 219.535 151.545C219.535 151.545 210.096 144.506 206.148 136.287" fill="#2E353A"/>
<path d="M220.813 135.353C220.813 135.353 217.962 141.921 217.962 142.863C217.962 143.804 233.983 194.27 238.595 205.77C241.514 213.136 244.077 220.658 246.274 228.306C246.274 228.306 248.035 230.621 246.714 232.998C245.393 235.375 240.132 236.988 239.035 234.874C237.938 232.759 227.178 221.753 222.574 210.702C217.969 199.65 211.38 180.888 207.642 173.849C202.717 164.837 198.321 155.506 194.478 145.911C189.643 133.709 184.67 120.481 184.67 120.481C191.187 121.064 197.748 120.277 203.983 118.166C214.086 114.647 218.417 107.909 218.417 107.909C218.417 107.909 220.986 114.932 221.643 116.29" fill="#2E353A"/>
<path d="M222.321 155.172C222.271 155.172 222.222 155.155 222.181 155.125C222.14 155.095 222.108 155.052 222.09 155.003L217.038 140.956C217.021 140.904 217.018 140.848 217.031 140.794C217.044 140.74 217.071 140.692 217.11 140.655L222.768 135.469C222.816 135.421 222.879 135.395 222.945 135.395C223.011 135.395 223.074 135.421 223.122 135.469C223.166 135.519 223.191 135.585 223.191 135.654C223.191 135.723 223.166 135.789 223.122 135.839L217.594 140.91L222.581 154.802C222.605 154.868 222.604 154.941 222.578 155.005C222.552 155.07 222.504 155.122 222.443 155.149L222.321 155.172Z" fill="white"/>
<path d="M217.262 141.118C217.2 141.119 217.141 141.094 217.096 141.049C217.071 141.024 217.051 140.995 217.037 140.961C217.024 140.928 217.017 140.892 217.016 140.856C217.016 140.817 217.016 136.58 215.241 133.91C214.801 133.223 214.447 132.683 214.151 132.243C213.228 130.838 212.946 130.414 212.78 129.712C212.666 128.89 212.666 128.055 212.78 127.234C212.792 127.166 212.828 127.105 212.88 127.064C212.932 127.022 212.997 127.003 213.062 127.01C213.094 127.015 213.125 127.027 213.153 127.044C213.181 127.062 213.206 127.086 213.225 127.114C213.245 127.142 213.259 127.174 213.267 127.208C213.275 127.242 213.276 127.277 213.271 127.311C213.169 128.066 213.169 128.833 213.271 129.588C213.415 130.19 213.661 130.56 214.57 131.942C214.859 132.382 215.219 132.922 215.66 133.609C217.262 136.071 217.486 139.606 217.522 140.617L227.777 140.192C227.842 140.192 227.905 140.218 227.953 140.265C228.001 140.312 228.031 140.377 228.037 140.447C228.039 140.482 228.034 140.516 228.023 140.549C228.012 140.582 227.995 140.612 227.972 140.637C227.95 140.662 227.923 140.683 227.893 140.696C227.863 140.71 227.831 140.717 227.799 140.717L217.291 141.149L217.262 141.118Z" fill="white"/>
<path d="M251.629 191.083C247.06 191.083 241.258 187.919 240.998 187.78C240.941 187.747 240.898 187.691 240.879 187.625C240.86 187.558 240.866 187.486 240.897 187.425C240.912 187.394 240.932 187.366 240.956 187.343C240.981 187.321 241.01 187.303 241.04 187.293C241.071 187.282 241.104 187.278 241.136 187.281C241.169 187.283 241.2 187.293 241.229 187.309C241.294 187.348 247.89 190.944 252.408 190.52C252.441 190.516 252.474 190.52 252.505 190.531C252.537 190.542 252.566 190.559 252.591 190.582C252.615 190.606 252.636 190.634 252.65 190.665C252.665 190.697 252.673 190.731 252.675 190.767C252.678 190.801 252.675 190.836 252.665 190.869C252.655 190.902 252.64 190.933 252.619 190.959C252.598 190.986 252.572 191.008 252.544 191.024C252.515 191.04 252.484 191.049 252.451 191.052C252.184 191.075 251.91 191.083 251.629 191.083Z" fill="white"/>
<path d="M251.015 195.158H250.958C246.909 194.07 242.362 190.088 242.167 189.918C242.123 189.868 242.099 189.801 242.099 189.733C242.099 189.664 242.123 189.597 242.167 189.547C242.188 189.52 242.213 189.498 242.241 189.481C242.27 189.465 242.301 189.454 242.333 189.451C242.365 189.447 242.398 189.451 242.429 189.46C242.46 189.47 242.489 189.487 242.514 189.509C242.557 189.547 247.169 193.591 251.109 194.641C251.14 194.65 251.17 194.665 251.196 194.687C251.221 194.708 251.243 194.734 251.259 194.764C251.275 194.795 251.285 194.828 251.289 194.862C251.293 194.897 251.291 194.932 251.282 194.965C251.269 195.027 251.233 195.082 251.184 195.117C251.135 195.153 251.074 195.168 251.015 195.158Z" fill="white"/>
<path d="M217.06 137.013C217.02 137.013 216.982 137.003 216.947 136.984C216.912 136.965 216.881 136.938 216.858 136.904C216.839 136.876 216.825 136.843 216.818 136.809C216.811 136.775 216.811 136.739 216.817 136.705C216.823 136.67 216.835 136.637 216.853 136.608C216.872 136.579 216.895 136.553 216.922 136.534C217.897 135.809 219.441 134.412 219.441 133.725C219.441 133.269 218.914 132.729 218.351 132.181C217.728 131.625 217.213 130.943 216.836 130.175C216.468 129.256 215.147 125.652 215.392 124.772C215.402 124.739 215.418 124.709 215.439 124.682C215.46 124.656 215.486 124.634 215.515 124.618C215.543 124.602 215.575 124.593 215.607 124.59C215.64 124.587 215.672 124.592 215.703 124.602C215.766 124.625 215.818 124.674 215.847 124.737C215.877 124.801 215.882 124.874 215.862 124.942C215.71 125.413 216.497 128.029 217.269 129.943C217.622 130.641 218.097 131.259 218.669 131.764C219.34 132.451 219.917 133.038 219.917 133.717C219.917 134.906 217.464 136.75 217.182 136.959C217.146 136.988 217.104 137.006 217.06 137.013Z" fill="white"/>
<path d="M193.013 138.525C192.961 138.527 192.91 138.512 192.866 138.481C192.823 138.45 192.79 138.405 192.772 138.352C192.755 138.3 192.753 138.242 192.768 138.189C192.783 138.135 192.813 138.088 192.854 138.054L194.875 136.326C196.816 134.674 198.014 130.452 198.029 130.406C198.049 130.339 198.092 130.283 198.15 130.25C198.208 130.217 198.276 130.209 198.339 130.229C198.402 130.25 198.454 130.297 198.485 130.359C198.516 130.421 198.523 130.493 198.505 130.56C198.455 130.738 197.242 134.983 195.185 136.735L193.165 138.463C193.122 138.502 193.069 138.524 193.013 138.525Z" fill="white"/>
<path d="M240.991 235.923C240.955 235.922 240.919 235.912 240.887 235.895C240.855 235.878 240.826 235.853 240.803 235.823C238.22 232.436 235.886 228.839 233.825 225.064C231.032 219.724 222.999 205.114 222.913 204.998C222.169 203.24 221.617 201.396 221.267 199.503C221.217 199.21 221.181 198.94 221.144 198.731C220.877 196.786 220.762 195.984 218.344 194.317C215.927 192.65 215.775 189.748 215.573 186.638C215.53 185.904 215.479 185.148 215.4 184.399C215.075 181.312 207.411 167.42 201.818 157.326C200.547 155.01 199.393 152.942 198.455 151.221C193.446 142.006 189.982 129.889 189.946 129.766C189.928 129.698 189.935 129.626 189.966 129.564C189.997 129.502 190.049 129.455 190.112 129.434C190.143 129.423 190.175 129.419 190.207 129.423C190.239 129.426 190.271 129.436 190.299 129.453C190.327 129.469 190.352 129.492 190.372 129.519C190.392 129.546 190.407 129.578 190.415 129.611C190.451 129.735 193.901 141.798 198.88 150.951C199.819 152.672 200.973 154.763 202.243 157.056C207.865 167.204 215.559 181.112 215.891 184.338C215.97 185.11 216.02 185.881 216.071 186.607C216.266 189.694 216.432 192.38 218.611 193.877C221.217 195.667 221.347 196.601 221.635 198.646C221.635 198.901 221.707 199.164 221.751 199.457C222.093 201.294 222.631 203.083 223.353 204.79C223.418 204.921 231.457 219.531 234.258 224.856C236.306 228.599 238.623 232.168 241.186 235.53C241.206 235.556 241.222 235.587 241.231 235.62C241.24 235.654 241.243 235.688 241.24 235.723C241.237 235.757 241.227 235.791 241.211 235.821C241.196 235.851 241.175 235.878 241.15 235.9C241.101 235.926 241.045 235.934 240.991 235.923Z" fill="white"/>
<path d="M184.67 120.481C184.67 120.481 185.132 125.945 187.153 127.674C189.174 129.403 195.236 130.915 203.521 129.218C211.806 127.52 220.899 119.956 221.708 117.332C222.516 114.708 218.402 107.917 218.402 107.917C218.402 107.917 213.625 115.171 200.288 117.548C186.951 119.925 184.67 120.481 184.67 120.481Z" fill="white"/>
<path d="M196.499 130.337C191.613 130.337 188.264 129.125 186.922 127.975C184.807 126.161 184.331 120.751 184.31 120.52C184.302 120.428 184.325 120.336 184.376 120.261C184.426 120.186 184.5 120.132 184.584 120.111C184.678 120.111 187.03 119.486 200.23 117.132C213.22 114.816 218.056 107.731 218.106 107.662C218.14 107.612 218.185 107.571 218.236 107.543C218.288 107.515 218.344 107.5 218.402 107.5C218.461 107.501 218.519 107.518 218.571 107.549C218.622 107.58 218.666 107.624 218.698 107.677C219.131 108.387 222.884 114.731 222.047 117.425C221.159 120.265 211.856 127.836 203.586 129.565C201.252 130.065 198.879 130.323 196.499 130.337ZM185.067 120.79C185.204 121.978 185.789 126.007 187.377 127.373C189.181 128.917 194.962 130.584 203.449 128.809C211.791 127.064 220.647 119.493 221.368 117.178C221.938 115.341 219.607 110.703 218.366 108.557C217.081 110.201 211.929 115.835 200.324 117.896C189.628 119.81 186.034 120.535 185.067 120.79Z" fill="#2E353A"/>
<path d="M237.938 67.5143C234.64 65.199 208.962 43.8054 206.545 42.8638C204.127 41.9222 199.328 42.8638 199.328 42.8638C199.328 42.8638 184.447 44.8087 181.329 46.1516C181.033 46.275 174.328 50.3963 174.112 50.6124C171.694 52.7271 161.122 57.9288 158.278 64.5044C155.052 71.9443 183.4 116.738 184.721 120.489C186.041 124.24 192.962 125.166 199.328 124.224C205.693 123.283 211.279 121.909 215.891 116.267C216.727 115.144 217.427 113.912 217.976 112.601C218.635 111.137 218.803 109.475 218.453 107.894C216.807 100.562 212.607 79.4228 209.836 65.4459C214.454 68.6333 224.06 75.1085 229.646 77.393C237.108 80.4801 242.817 78.3346 242.817 75.7491C242.817 73.1637 241.229 69.8605 237.938 67.5143Z" fill="white"/>
<path d="M229.025 72.0755C224.625 71.6112 220.364 70.1735 216.511 67.8539C216.511 67.8539 222.22 65.0369 222.436 63.6246C222.653 62.2122 214.534 63.393 215.631 62.9223C216.728 62.4515 218.265 61.2784 215.631 61.2784C213.531 61.1307 211.462 60.6575 209.489 59.8737L209.785 65.4228C212.297 67.1593 216.28 69.8528 220.279 72.3225C224.039 74.4368 227.911 76.3154 231.876 77.9487C231.876 77.9487 236.704 73.0171 229.025 72.0755Z" fill="#4CB599"/>
<g style="mix-blend-mode:multiply">
<path d="M199.277 124.216L200.093 124.093C201.854 123.182 204.834 122.611 207.735 121.839C212.123 120.666 207.295 120.666 200.049 116.676C192.804 112.686 189.946 106.821 183.364 98.3698C176.782 89.9188 174.148 85.6895 175.469 84.7557C176.789 83.8218 172.835 83.8141 171.297 82.8725C169.76 81.931 173.462 81.9387 176.566 78.6509C179.669 75.3632 170.633 79.3532 169.76 79.1217C168.887 78.8902 170.633 75.834 170.633 75.834L164.268 82.8725L179.633 111.042L180.513 111.745L181.524 113.288L184.41 119.925C184.526 120.157 184.605 120.35 184.656 120.481C185.984 124.24 192.912 125.166 199.277 124.216Z" fill="#4CB599"/>
</g>
<path d="M170.179 58.5848C175.036 57.813 188.575 66.071 188.575 66.071C181.134 60.6686 174.625 55.6058 170.172 53.3213L161.966 59.4955L161.403 60.0589C162.356 59.8582 166.008 59.2176 170.179 58.5848Z" fill="#4CB599"/>
<path opacity="0.5" d="M229.025 72.0755C224.625 71.6112 220.364 70.1735 216.511 67.8539C216.511 67.8539 222.22 65.0369 222.436 63.6246C222.653 62.2122 214.534 63.393 215.631 62.9223C216.728 62.4515 218.265 61.2784 215.631 61.2784C213.531 61.1307 211.462 60.6575 209.489 59.8737L209.785 65.4228C212.297 67.1593 216.28 69.8528 220.279 72.3225C224.039 74.4368 227.911 76.3154 231.876 77.9487C231.876 77.9487 236.704 73.0171 229.025 72.0755Z" fill="white"/>
<path opacity="0.5" d="M199.277 124.216L200.093 124.093C201.854 123.182 204.834 122.611 207.735 121.839C212.123 120.666 207.295 120.666 200.049 116.676C192.804 112.686 189.946 106.821 183.364 98.3698C176.782 89.9188 174.148 85.6895 175.469 84.7557C176.789 83.8218 172.835 83.8141 171.297 82.8725C169.76 81.931 173.462 81.9387 176.566 78.6509C179.669 75.3632 170.633 79.3532 169.76 79.1217C168.887 78.8902 170.633 75.834 170.633 75.834L164.268 82.8725L179.633 111.042L180.513 111.745L181.524 113.288L184.41 119.925C184.526 120.157 184.605 120.35 184.656 120.481C185.984 124.24 192.912 125.166 199.277 124.216Z" fill="white"/>
<path opacity="0.5" d="M170.179 58.5848C175.036 57.813 188.575 66.071 188.575 66.071C181.134 60.6686 174.625 55.6058 170.172 53.3213L161.966 59.4955L161.403 60.0589C162.356 59.8582 166.008 59.2176 170.179 58.5848Z" fill="white"/>
<path d="M194.659 124.95C189.794 124.95 185.414 123.707 184.331 120.62C184.014 119.709 181.877 115.989 179.171 111.312C167.675 91.3698 155.601 69.6367 157.903 64.3346C160.068 59.3335 166.469 55.2045 170.706 52.4724C171.785 51.8165 172.828 51.095 173.831 50.3114C174.09 50.0876 180.809 45.9509 181.17 45.7965C184.302 44.4459 198.649 42.5628 199.263 42.4856C199.443 42.447 204.192 41.5363 206.667 42.4856C208.27 43.1108 219.246 51.9939 228.066 59.1328C232.843 62.9917 236.964 66.3412 238.133 67.1747C241.814 69.7987 243.127 73.3026 243.127 75.7105C243.101 76.1575 242.971 76.5904 242.749 76.9703C242.527 77.3502 242.221 77.6652 241.857 77.8869C239.728 79.4305 235.073 80.0093 229.466 77.7171C225.547 76.1119 218.936 72.1526 210.319 66.2331C213.206 80.9354 217.168 100.739 218.749 107.778C219.121 109.447 218.945 111.201 218.251 112.748C217.687 114.095 216.959 115.356 216.085 116.499C211.265 122.387 205.397 123.684 199.306 124.579C197.767 124.817 196.214 124.94 194.659 124.95ZM203.607 42.8329C202.188 42.8558 200.772 42.9926 199.371 43.242C199.198 43.242 184.483 45.1946 181.437 46.5066C181.04 46.6995 174.61 50.6587 174.285 50.9134C173.258 51.7209 172.185 52.4606 171.074 53.1284C166.917 55.8142 160.638 59.8737 158.56 64.705C156.221 70.1074 171.55 96.6642 179.785 110.95C182.722 116.043 184.663 119.439 185.01 120.389C186.287 124.031 193.273 124.749 199.227 123.869C205.181 122.989 210.911 121.731 215.566 116.043C216.384 114.947 217.068 113.744 217.601 112.462C218.221 111.079 218.379 109.51 218.048 108.017C216.432 100.824 212.362 80.3335 209.431 65.5694C209.417 65.494 209.424 65.4158 209.451 65.3445C209.478 65.2731 209.524 65.2118 209.583 65.1681C209.642 65.1266 209.711 65.1045 209.782 65.1045C209.852 65.1045 209.921 65.1266 209.98 65.1681C218.915 71.3423 225.742 75.4558 229.725 77.0766C235.051 79.2607 239.54 78.7436 241.446 77.339C241.708 77.1807 241.932 76.9584 242.098 76.6902C242.265 76.4219 242.37 76.1154 242.405 75.7954C242.405 73.5881 241.179 70.3544 237.736 67.9002C236.545 67.0512 232.417 63.7094 227.633 59.8351C219.311 53.1052 207.923 43.8825 206.422 43.296C205.514 42.9785 204.563 42.8221 203.607 42.8329Z" fill="#2E353A"/>
<path d="M161.757 59.6961C161.757 59.6961 159.122 62.7832 158.098 64.211C152.598 71.7666 135.097 95.9772 134.902 97.9298C134.708 99.8824 135.538 101.194 139.817 102.954C144.097 104.714 172.726 74.0356 172.726 74.0356" fill="white"/>
<g style="mix-blend-mode:multiply" opacity="0.8">
<path d="M161.8 59.7888L161.432 60.0434C160.898 60.6763 159.743 62.0578 158.848 63.1923L145.555 81.8383C145.555 81.8383 145.143 82.3323 144.494 83.1504C139.507 90.2584 135.162 96.6718 134.895 97.8141C134.895 97.8526 134.895 97.8912 134.895 97.9221C134.722 99.7666 135.559 101.171 139.817 102.923C140.575 103.232 142.076 102.537 144.046 101.187C143.045 100.971 142.089 100.564 141.225 99.9827C138.807 98.3389 140.784 96.695 140.784 96.695C140.784 96.695 143.924 98.0379 147.02 98.9409C147.662 98.4238 148.333 97.8681 149.019 97.2815C148.359 96.8196 147.734 96.3035 147.15 95.738C144.516 93.1603 142.322 90.5748 142.322 90.5748L162.442 60.5451L161.8 59.7888Z" fill="#4CB599"/>
</g>
<path opacity="0.5" d="M161.8 59.7888L161.432 60.0434C160.898 60.6763 159.743 62.0578 158.848 63.1923L145.555 81.8383C145.555 81.8383 145.143 82.3323 144.494 83.1504C139.507 90.2584 135.162 96.6718 134.895 97.8141C134.895 97.8526 134.895 97.8912 134.895 97.9221C134.722 99.7666 135.559 101.171 139.817 102.923C140.575 103.232 142.076 102.537 144.046 101.187C143.045 100.971 142.089 100.564 141.225 99.9827C138.807 98.3389 140.784 96.695 140.784 96.695C140.784 96.695 143.924 98.0379 147.02 98.9409C147.662 98.4238 148.333 97.8681 149.019 97.2815C148.359 96.8196 147.734 96.3035 147.15 95.738C144.516 93.1603 142.322 90.5748 142.322 90.5748L162.442 60.5451L161.8 59.7888Z" fill="white"/>
<path d="M140.149 103.402C139.987 103.404 139.826 103.375 139.673 103.317C135.689 101.673 134.289 100.23 134.527 97.9145C134.722 95.9928 149.192 75.8417 157.794 64.0027C158.819 62.5981 161.367 59.5959 161.475 59.4724C161.506 59.4314 161.544 59.3975 161.588 59.3729C161.631 59.3483 161.679 59.3335 161.728 59.3293C161.777 59.3252 161.826 59.3318 161.873 59.3487C161.919 59.3657 161.962 59.3926 161.999 59.428C162.035 59.4633 162.064 59.5062 162.085 59.554C162.105 59.6019 162.116 59.6537 162.117 59.7063C162.118 59.7589 162.109 59.8111 162.09 59.8598C162.072 59.9085 162.044 59.9526 162.009 59.9895C162.009 59.9895 159.368 63.0766 158.364 64.4812C144.465 83.6058 135.386 96.7645 135.27 97.9994C135.104 99.6432 135.819 100.924 139.961 102.63C142.942 103.857 161.042 86.0523 172.481 73.7888C172.549 73.7161 172.641 73.6753 172.737 73.6753C172.833 73.6753 172.925 73.7161 172.993 73.7888C173.061 73.8615 173.099 73.96 173.099 74.0628C173.099 74.1656 173.061 74.2641 172.993 74.3368C170.128 77.3621 145.677 103.402 140.149 103.402Z" fill="#2E353A"/>
<path d="M219.687 58.2916L209.785 65.4228C211.229 65.2067 218.07 62.6136 218.07 62.6136" fill="white"/>
<path d="M209.785 65.8086C209.713 65.8098 209.641 65.7866 209.582 65.7423C209.522 65.698 209.477 65.6348 209.453 65.5616C209.423 65.4813 209.419 65.3923 209.443 65.3094C209.466 65.2265 209.516 65.1548 209.583 65.1063L219.492 57.9751C219.53 57.9461 219.574 57.9256 219.62 57.9149C219.666 57.9042 219.714 57.9035 219.761 57.9129C219.807 57.9222 219.851 57.9414 219.891 57.9694C219.93 57.9973 219.964 58.0334 219.99 58.0754C220.042 58.1617 220.061 58.2666 220.042 58.3676C220.023 58.4686 219.968 58.5577 219.889 58.6157L211.77 64.4657C214.26 63.6476 217.904 62.2739 217.955 62.2507C218.05 62.217 218.155 62.2252 218.245 62.2737C218.335 62.3222 218.403 62.4069 218.435 62.5093C218.466 62.6116 218.458 62.7232 218.413 62.8194C218.368 62.9157 218.288 62.9887 218.193 63.0225C217.911 63.1228 211.272 65.6311 209.836 65.8472L209.785 65.8086Z" fill="#2E353A"/>
<path d="M219.283 62.7838C219.199 62.782 219.118 62.7496 219.054 62.6921C218.989 62.6345 218.945 62.5552 218.929 62.4672C218.912 62.3669 218.933 62.2636 218.987 62.1797C219.041 62.0958 219.124 62.0382 219.218 62.0194L221.441 61.587C221.535 61.5688 221.633 61.5909 221.712 61.6487C221.792 61.7064 221.847 61.7951 221.866 61.8959C221.876 61.9466 221.875 61.9989 221.865 62.0496C221.856 62.1002 221.836 62.1482 221.809 62.1907C221.781 62.2332 221.746 62.2693 221.705 62.2969C221.664 62.3245 221.618 62.3431 221.57 62.3514L219.348 62.7838H219.283Z" fill="#2E353A"/>
<path d="M145.923 90.4359C144.395 90.3871 142.875 90.6954 141.47 91.3392L145.923 90.4359Z" fill="white"/>
<path d="M141.47 91.7486C141.374 91.7681 141.275 91.7461 141.195 91.6874C141.114 91.6288 141.059 91.5383 141.041 91.4359C141.022 91.3335 141.043 91.2276 141.098 91.1415C141.153 91.0553 141.237 90.996 141.333 90.9765C142.79 90.3069 144.367 89.988 145.952 90.0423C145.999 90.0462 146.045 90.0601 146.088 90.0832C146.13 90.1063 146.168 90.1381 146.199 90.1769C146.23 90.2156 146.253 90.2605 146.268 90.309C146.282 90.3574 146.288 90.4085 146.284 90.4592C146.275 90.561 146.229 90.6549 146.156 90.7212C146.083 90.7874 145.989 90.8209 145.894 90.8144C144.425 90.7688 142.965 91.0665 141.614 91.6868C141.571 91.7189 141.522 91.74 141.47 91.7486Z" fill="#2E353A"/>
<path d="M167.501 79.855C167.501 79.855 173.065 78.0336 174.537 76.8219L167.501 79.855Z" fill="white"/>
<path d="M167.501 80.2408C167.406 80.2552 167.309 80.2283 167.231 80.166C167.154 80.1038 167.103 80.0113 167.09 79.909C167.077 79.8066 167.102 79.7028 167.16 79.6203C167.218 79.5378 167.305 79.4834 167.4 79.4691C167.451 79.4691 172.914 77.6631 174.321 76.5055C174.397 76.4432 174.493 76.4156 174.587 76.4286C174.682 76.4416 174.768 76.4942 174.826 76.5749C174.883 76.6565 174.908 76.7583 174.895 76.859C174.883 76.9597 174.835 77.0514 174.762 77.1152C173.246 78.3577 167.841 80.1328 167.61 80.2023C167.576 80.2229 167.539 80.236 167.501 80.2408Z" fill="#2E353A"/>
<path d="M175.902 76.2203C175.902 76.2203 176.811 75.371 177.15 75.371L175.902 76.2203Z" fill="white"/>
<path d="M175.902 76.6064C175.85 76.6059 175.799 76.594 175.752 76.5714C175.705 76.5488 175.663 76.5161 175.628 76.4752C175.561 76.4017 175.524 76.3034 175.524 76.2011C175.524 76.0987 175.561 76.0004 175.628 75.927C176.036 75.4766 176.549 75.1514 177.114 74.985C177.21 74.985 177.302 75.0257 177.37 75.0981C177.437 75.1705 177.475 75.2687 177.475 75.3711C177.473 75.4728 177.435 75.5699 177.368 75.6419C177.3 75.7138 177.21 75.7551 177.114 75.7571C176.743 75.9576 176.402 76.218 176.104 76.5292C176.046 76.5772 175.975 76.6042 175.902 76.6064Z" fill="#2E353A"/>
<path d="M209.785 65.8087C209.695 65.8075 209.61 65.7716 209.543 65.7077C209.477 65.6438 209.434 65.5563 209.424 65.4614L208.522 55.5441C208.517 55.4934 208.522 55.4423 208.535 55.3935C208.549 55.3447 208.572 55.2994 208.602 55.26C208.632 55.2205 208.669 55.1879 208.711 55.1638C208.753 55.1397 208.799 55.1247 208.847 55.1196C208.894 55.1146 208.942 55.1195 208.987 55.1342C209.033 55.149 209.075 55.1731 209.112 55.2054C209.149 55.2376 209.18 55.2773 209.202 55.3222C209.225 55.3671 209.239 55.4163 209.244 55.4669L210.153 65.392C210.158 65.4423 210.153 65.4931 210.14 65.5415C210.126 65.5899 210.103 65.6349 210.073 65.6737C210.043 65.7126 210.005 65.7446 209.963 65.7677C209.921 65.7909 209.875 65.8049 209.828 65.8087H209.785Z" fill="#2E353A"/>
<path d="M134.881 98.0302C134.881 98.0302 133.603 103.255 141.795 105.424C145.684 106.45 171.427 113.142 171.427 113.142C171.427 113.142 173.729 107.863 172.416 107.863C171.102 107.863 147.366 90.9839 147.366 90.9839" fill="white"/>
<path d="M138.706 104.274L168.555 112.424L169.349 110.402C169.349 110.402 158.105 107.994 151.083 104.228C144.061 100.461 143.613 101.642 141.203 100.006C138.793 98.3698 140.763 96.7182 140.763 96.7182C140.763 96.7182 147.352 99.5352 150.866 99.7667C154.381 99.9982 149.769 98.3621 147.135 95.7766C146.046 94.7116 145.035 93.6388 144.249 92.759L134.867 98.0225C134.867 98.0225 133.957 101.812 138.706 104.274Z" fill="#4CB599"/>
<path opacity="0.5" d="M138.706 104.274L168.555 112.424L169.349 110.402C169.349 110.402 158.105 107.994 151.083 104.228C144.061 100.461 143.613 101.642 141.203 100.006C138.793 98.3698 140.763 96.7182 140.763 96.7182C140.763 96.7182 147.352 99.5352 150.866 99.7667C154.381 99.9982 149.769 98.3621 147.135 95.7766C146.046 94.7116 145.035 93.6388 144.249 92.759L134.867 98.0225C134.867 98.0225 133.957 101.812 138.706 104.274Z" fill="white"/>
<path d="M171.427 113.589H171.341C171.341 113.589 145.598 106.867 141.708 105.871C138.46 105.015 136.259 103.556 135.17 101.619C134.535 100.546 134.308 99.2536 134.534 98.0071C134.56 97.9088 134.62 97.8249 134.702 97.7731C134.784 97.7213 134.882 97.7056 134.975 97.7292C135.066 97.7563 135.144 97.821 135.191 97.9091C135.239 97.9973 135.252 98.1018 135.227 98.2C135.064 99.2551 135.269 100.337 135.805 101.241C136.793 103.016 138.843 104.328 141.881 105.1C145.49 106.064 168.382 112.046 171.225 112.771C172.113 110.672 172.669 108.634 172.416 108.318C171.045 108.318 151.162 94.1945 147.193 91.339C147.113 91.281 147.058 91.1919 147.039 91.0909C147.02 90.9899 147.039 90.885 147.092 90.7987C147.118 90.7566 147.152 90.7206 147.191 90.6926C147.23 90.6647 147.275 90.6455 147.321 90.6362C147.367 90.6268 147.415 90.6275 147.461 90.6382C147.508 90.6489 147.551 90.6693 147.59 90.6984C156.936 97.3588 171.268 107.338 172.43 107.531C172.548 107.533 172.663 107.565 172.767 107.626C172.87 107.686 172.957 107.773 173.022 107.878C173.621 108.889 172.199 112.331 171.745 113.365C171.717 113.431 171.672 113.486 171.616 113.526C171.56 113.565 171.494 113.587 171.427 113.589Z" fill="#2E353A"/>
<path d="M172.416 107.886C172.416 107.886 180.867 112.115 181.524 113.288C182.18 114.461 183.689 120.558 183.689 122.441C183.689 124.325 183.472 124.317 182.375 124.317C181.278 124.317 178.42 119.856 177.764 118.914C177.107 117.973 175.599 117.973 173.592 116.599C173.033 116.22 172.553 115.722 172.18 115.137C171.808 114.552 171.552 113.891 171.427 113.196L172.416 107.886Z" fill="white"/>
<path d="M182.404 124.703C181.459 124.703 179.9 122.688 177.851 119.663C177.706 119.447 177.591 119.269 177.504 119.154C177.092 118.715 176.575 118.406 176.01 118.258C175.1 117.912 174.23 117.454 173.419 116.892C172.812 116.484 172.29 115.946 171.885 115.313C171.481 114.68 171.202 113.964 171.067 113.211C171.063 113.172 171.063 113.134 171.067 113.095L172.055 107.809C172.066 107.752 172.089 107.698 172.121 107.651C172.154 107.605 172.195 107.566 172.243 107.538C172.292 107.512 172.347 107.498 172.402 107.498C172.457 107.498 172.511 107.512 172.561 107.538C174.004 108.248 181.149 111.876 181.827 113.088C182.505 114.299 184.071 120.504 184.071 122.441C184.071 124.379 183.74 124.703 182.404 124.703ZM171.796 113.18C171.924 113.813 172.17 114.412 172.518 114.943C172.866 115.473 173.31 115.923 173.824 116.267C174.59 116.795 175.411 117.225 176.27 117.548C176.965 117.741 177.593 118.143 178.081 118.706C178.168 118.822 178.291 118.999 178.435 119.223C181.076 123.128 182.044 123.946 182.404 123.946C183.357 123.946 183.357 123.946 183.357 122.457C183.357 120.635 181.856 114.639 181.192 113.497C180.773 112.725 175.902 110.101 172.654 108.457L171.796 113.18Z" fill="#2E353A"/>
<path d="M168.808 112.648C168.772 112.655 168.735 112.655 168.699 112.648C168.654 112.633 168.612 112.608 168.575 112.575C168.539 112.543 168.509 112.502 168.487 112.457C168.466 112.412 168.453 112.362 168.45 112.311C168.446 112.26 168.453 112.209 168.468 112.161L169.782 107.801C169.795 107.751 169.818 107.704 169.848 107.664C169.879 107.624 169.917 107.59 169.959 107.566C170.002 107.542 170.049 107.527 170.098 107.522C170.146 107.518 170.195 107.524 170.241 107.54C170.287 107.556 170.33 107.582 170.366 107.616C170.403 107.65 170.432 107.692 170.454 107.738C170.475 107.785 170.487 107.836 170.489 107.888C170.492 107.94 170.484 107.991 170.468 108.04L169.154 112.401C169.126 112.474 169.078 112.537 169.017 112.582C168.955 112.626 168.882 112.649 168.808 112.648Z" fill="#2E353A"/>
<path d="M232.886 75.0005C232.886 75.0005 230.721 82.9806 229.812 87.673C228.903 92.3654 222.79 111.15 222.79 111.15L228.058 114.67C228.058 114.67 239.692 88.8924 241.908 83.243C244.123 77.5936 243.445 73.3797 241.251 71.0335" fill="white"/>
<path d="M228.058 115.079C227.992 115.077 227.927 115.056 227.871 115.017L222.602 111.498C222.532 111.452 222.479 111.381 222.452 111.299C222.424 111.216 222.424 111.125 222.451 111.042C222.508 110.857 228.599 92.2342 229.458 87.6267C230.317 83.0192 232.525 75.0005 232.525 74.9156C232.552 74.8132 232.616 74.7264 232.703 74.6743C232.789 74.6222 232.892 74.6091 232.987 74.6377C233.083 74.6664 233.164 74.7345 233.213 74.8271C233.262 74.9198 233.274 75.0293 233.247 75.1317C233.247 75.2088 231.046 83.1504 230.18 87.7733C229.357 92.1801 224.053 108.526 223.237 111.011L227.921 114.137C229.364 110.888 239.548 88.275 241.568 83.0886C243.517 78.0798 243.308 73.8274 240.991 71.3037C240.924 71.232 240.886 71.1348 240.886 71.0335C240.886 70.9322 240.924 70.835 240.991 70.7634C241.058 70.6918 241.149 70.6515 241.243 70.6515C241.338 70.6515 241.429 70.6918 241.496 70.7634C244.036 73.4723 244.303 78.0798 242.218 83.3896C240.053 88.9696 228.506 114.6 228.383 114.863C228.362 114.911 228.33 114.955 228.292 114.989C228.253 115.024 228.208 115.049 228.159 115.063L228.058 115.079Z" fill="#2E353A"/>
<path d="M223.786 108.465C224.183 108.465 229.184 111.413 229.184 111.413L223.786 108.465Z" fill="#2E353A"/>
<path d="M189.174 66.071C187.961 65.8549 181.488 61.3169 177.042 57.6432C172.596 53.9696 170.172 53.3213 170.172 53.3213L167.14 55.4823C166.682 53.9028 166.827 52.1933 167.545 50.7281C168.757 48.3511 173.001 45.974 177.244 44.2452C181.488 42.5164 186.337 41.0424 189.376 41.0424C192.414 41.0424 193.215 42.3389 193.215 44.0677C193.215 45.7965 193.215 51.1989 192.205 55.3047C191.194 59.4106 189.174 66.071 189.174 66.071Z" fill="white"/>
<g style="mix-blend-mode:multiply">
<path d="M187.268 43.5352C187.268 43.5352 185.399 49.5242 183.53 51.3225C182.087 52.6168 180.525 53.7519 178.868 54.7105C178.868 54.7105 177.749 50.5198 174.949 50.5198C172.149 50.5198 167.855 52.5187 167.855 52.5187C167.855 52.5187 167.855 50.9211 171.398 48.9222L174.949 46.9311L183.162 43.5352H187.268Z" fill="#4CB599"/>
</g>
<path opacity="0.5" d="M187.268 43.5352C187.268 43.5352 185.399 49.5242 183.53 51.3225C182.087 52.6168 180.525 53.7519 178.868 54.7105C178.868 54.7105 177.749 50.5198 174.949 50.5198C172.149 50.5198 167.855 52.5187 167.855 52.5187C167.855 52.5187 167.855 50.9211 171.398 48.9222L174.949 46.9311L183.162 43.5352H187.268Z" fill="white"/>
<path d="M189.173 66.4569H189.109C187.766 66.2176 181.119 61.5021 176.84 57.9674C173.123 54.8803 170.828 53.9619 170.244 53.7612L167.357 55.8218C167.31 55.8523 167.257 55.8721 167.202 55.8801C167.148 55.8881 167.092 55.884 167.039 55.8682C166.987 55.8491 166.94 55.8176 166.902 55.7762C166.863 55.7347 166.833 55.6843 166.816 55.6289C166.568 54.7958 166.478 53.9184 166.552 53.0478C166.625 52.1773 166.859 51.331 167.241 50.5583C168.685 47.6719 174.069 45.1559 177.136 43.8979C179.546 42.9178 185.565 40.6333 189.404 40.6333C192.226 40.6333 193.605 41.7447 193.605 44.0446C193.605 45.8197 193.605 51.2298 192.58 55.3819C191.555 59.5341 189.563 66.1405 189.542 66.1868C189.519 66.2702 189.469 66.3426 189.402 66.3918C189.335 66.441 189.254 66.464 189.173 66.4569ZM170.171 52.9354H170.258C170.359 52.9354 172.813 53.6455 177.266 57.3268C181.444 60.7766 187.268 64.8825 188.935 65.5848C189.368 64.1339 190.992 58.6388 191.822 55.1504C192.825 51.0986 192.825 45.7656 192.825 44.0137C192.825 42.7094 192.414 41.3742 189.347 41.3742C186.734 41.3742 182.361 42.5473 177.345 44.5925C172.329 46.6377 168.829 48.9453 167.833 50.8979C167.236 52.1107 167.057 53.5097 167.328 54.8494L169.94 52.9894C170.009 52.9436 170.091 52.9246 170.171 52.9354Z" fill="#2E353A"/>
<path d="M171.182 38.6422C173.549 41.4344 175.211 44.8267 176.01 48.4977C177.323 54.6025 185.579 61.78 187.557 61.78C189.534 61.78 189.397 51.3147 188.74 48.2662C188.084 45.2177 185.449 36.9983 185.449 36.9983C185.449 36.9983 174.942 31.5959 171.182 38.6422Z" fill="white"/>
<path d="M187.586 62.1659C185.464 62.1659 177.021 54.7878 175.685 48.5827C174.894 44.9843 173.266 41.658 170.951 38.9124C170.896 38.8525 170.86 38.7749 170.849 38.6912C170.839 38.6076 170.854 38.5226 170.893 38.4493C174.747 31.1792 185.522 36.5893 185.63 36.6511C185.674 36.673 185.713 36.7042 185.745 36.7426C185.778 36.7811 185.802 36.826 185.818 36.8749C185.926 37.2067 188.467 45.1406 189.123 48.1814C189.693 50.8517 189.961 59.6268 188.445 61.672C188.348 61.82 188.219 61.9417 188.07 62.0274C187.921 62.1131 187.755 62.1606 187.586 62.1659ZM171.658 38.5882C173.974 41.3918 175.598 44.7686 176.386 48.4129C177.699 54.4713 185.905 61.3941 187.586 61.3941C187.586 61.3941 187.723 61.3941 187.875 61.1858C189.102 59.5419 189.022 51.1527 188.416 48.3512C187.81 45.5496 185.529 38.4338 185.183 37.2762C183.978 36.7051 175.065 32.715 171.658 38.5882Z" fill="#2E353A"/>
<g style="mix-blend-mode:multiply">
<path d="M187.268 43.5352C187.268 43.5352 185.399 49.5242 183.53 51.3224C182.087 52.6168 180.525 53.7519 178.868 54.7105C178.868 54.7105 177.749 50.5198 174.949 50.5198C172.149 50.5198 167.855 52.5187 167.855 52.5187C167.855 52.5187 167.855 50.9211 171.398 48.9222L174.949 46.931L183.162 43.5352H187.268Z" fill="#4CB599"/>
</g>
<path opacity="0.5" d="M187.268 43.5352C187.268 43.5352 185.399 49.5242 183.53 51.3224C182.087 52.6168 180.525 53.7519 178.868 54.7105C178.868 54.7105 177.749 50.5198 174.949 50.5198C172.149 50.5198 167.855 52.5187 167.855 52.5187C167.855 52.5187 167.855 50.9211 171.398 48.9222L174.949 46.931L183.162 43.5352H187.268Z" fill="white"/>
<path d="M171.182 38.6423C173.549 41.4345 175.211 44.8268 176.01 48.4979C177.323 54.6026 185.579 61.7801 187.557 61.7801C189.534 61.7801 189.397 51.3149 188.74 48.2664C188.084 45.2179 185.449 36.9985 185.449 36.9985C185.449 36.9985 174.942 31.596 171.182 38.6423Z" fill="white"/>
<path d="M187.586 62.1659C185.464 62.1659 177.021 54.7878 175.685 48.5827C174.894 44.9843 173.266 41.658 170.951 38.9124C170.896 38.8525 170.86 38.7749 170.849 38.6912C170.839 38.6076 170.854 38.5226 170.893 38.4493C174.747 31.1792 185.522 36.5893 185.63 36.6511C185.674 36.673 185.713 36.7042 185.745 36.7426C185.778 36.7811 185.802 36.826 185.818 36.8749C185.926 37.2067 188.467 45.1406 189.123 48.1814C189.693 50.8517 189.961 59.6268 188.445 61.672C188.348 61.82 188.219 61.9417 188.07 62.0274C187.921 62.1131 187.755 62.1606 187.586 62.1659ZM171.658 38.5882C173.974 41.3918 175.598 44.7686 176.386 48.4129C177.699 54.4713 185.905 61.3941 187.586 61.3941C187.586 61.3941 187.723 61.3941 187.875 61.1858C189.102 59.5419 189.022 51.1527 188.416 48.3512C187.81 45.5496 185.529 38.4338 185.183 37.2762C183.978 36.7051 175.065 32.715 171.658 38.5882Z" fill="#2E353A"/>
<path d="M164.246 27.3279C165.795 31.8309 167.71 36.1798 169.969 40.3246C173.304 46.1824 179.741 49.501 183.313 47.9729C186.886 46.4448 189.318 41.5132 188.365 33.8726C188.156 32.1901 186.785 31.5032 186.345 30.0137C184.764 24.6113 183.155 19.4018 182.599 17.4183C181.877 14.8638 176.161 12.3169 170.208 14.0997C164.254 15.8825 163.294 21.2078 164.246 27.3279Z" fill="white"/>
<path d="M184.028 22.651C184.028 22.651 181.863 24.3721 176.999 23.3765C172.134 22.3809 168.786 22.6047 168.973 23.9784C169.161 25.3522 169.536 27.1659 169.536 27.1659C169.536 27.1659 163.698 21.7635 168.988 20.328C172.798 19.2706 175 20.8759 175.931 21.0997C176.861 21.3235 184.028 22.651 184.028 22.651Z" fill="#4CB599"/>
<path opacity="0.5" d="M184.028 22.651C184.028 22.651 181.863 24.3721 176.999 23.3765C172.134 22.3809 168.786 22.6047 168.973 23.9784C169.161 25.3522 169.536 27.1659 169.536 27.1659C169.536 27.1659 163.698 21.7635 168.988 20.328C172.798 19.2706 175 20.8759 175.931 21.0997C176.861 21.3235 184.028 22.651 184.028 22.651Z" fill="white"/>
<path d="M181.322 48.7602C177.446 48.7602 172.402 45.3721 169.659 40.5485C167.38 36.3798 165.448 32.005 163.886 27.4746C163.882 27.4543 163.882 27.4332 163.886 27.4129C162.695 19.8109 164.73 15.3269 170.099 13.7216C176.328 11.8539 182.18 14.6014 182.938 17.2949C183.198 18.2288 183.66 19.8649 184.302 21.9256C185.024 24.2409 185.839 27.0424 186.677 29.9134C186.886 30.4846 187.195 31.0083 187.586 31.457C188.17 32.1122 188.561 32.9359 188.712 33.8263C189.78 42.4007 186.691 46.9465 183.443 48.3357C182.768 48.6206 182.048 48.7646 181.322 48.7602ZM164.6 27.2277C166.138 31.6941 168.036 36.0092 170.273 40.124C173.628 46.0126 179.972 48.984 183.184 47.6102C186.179 46.3291 189.022 42.0612 188.004 33.9189C187.872 33.1751 187.544 32.4871 187.059 31.9355C186.603 31.4008 186.252 30.7735 186.027 30.0909C185.19 27.2276 184.346 24.4184 183.653 22.1108C183.039 20.0733 182.549 18.4294 182.281 17.4801C181.675 15.3346 176.342 12.6257 170.33 14.393C165.365 15.9212 163.496 20.1042 164.6 27.2277Z" fill="#2E353A"/>
<path d="M168.54 35.7325C168.54 35.7325 164.723 33.9497 164.485 35.7325C164.246 37.5153 165.928 38.8196 167.581 39.5914C167.993 39.8324 168.463 39.9369 168.93 39.8916C169.398 39.8462 169.843 39.6531 170.208 39.3367" fill="white"/>
<path d="M168.786 40.2707C168.323 40.2645 167.866 40.1568 167.443 39.9542C165.084 38.8738 163.907 37.3688 164.131 35.7172C164.15 35.5284 164.212 35.3474 164.311 35.1901C164.411 35.0327 164.544 34.9037 164.701 34.8142C165.849 34.1273 168.396 35.285 168.685 35.4239C168.766 35.4697 168.828 35.5469 168.858 35.6398C168.888 35.7327 168.883 35.8343 168.846 35.9238C168.808 36.0134 168.74 36.0842 168.655 36.1218C168.57 36.1594 168.475 36.161 168.389 36.1262C167.436 35.6786 165.683 35.1152 165.047 35.4857C164.99 35.5194 164.941 35.5683 164.906 35.6276C164.87 35.687 164.85 35.755 164.845 35.8253C164.614 37.5463 166.549 38.704 167.732 39.2442C168.079 39.4507 168.476 39.5439 168.872 39.5123C169.268 39.4808 169.647 39.3259 169.962 39.0667C170.032 39.004 170.121 38.9716 170.211 38.976C170.302 38.9804 170.388 39.0213 170.452 39.0906C170.516 39.1598 170.553 39.2522 170.556 39.3494C170.559 39.4466 170.527 39.5413 170.467 39.6147C170.004 40.0526 169.404 40.287 168.786 40.2707Z" fill="#2E353A"/>
<path d="M184.121 25.6532C184.121 25.6532 179.871 24.5727 181.689 30.6311C182.05 31.8274 184.526 33.2243 184.526 33.2243C184.526 33.2243 184.323 35.1692 183.313 35.3853" fill="white"/>
<path d="M183.306 35.7712C183.223 35.7698 183.143 35.7386 183.079 35.6826C183.015 35.6265 182.97 35.549 182.953 35.4625C182.943 35.4123 182.943 35.3606 182.953 35.3104C182.962 35.2602 182.981 35.2125 183.008 35.1702C183.035 35.1278 183.069 35.0915 183.109 35.0636C183.149 35.0356 183.194 35.0164 183.241 35.0071C183.761 34.8914 184.028 33.973 184.129 33.4636C183.465 33.0623 181.69 31.9201 181.35 30.7778C180.672 28.5242 180.73 26.919 181.516 26.0083C182.484 24.8892 184.129 25.2982 184.201 25.3137C184.294 25.3375 184.374 25.3996 184.424 25.4863C184.474 25.5731 184.49 25.6775 184.468 25.7767C184.458 25.8263 184.439 25.8732 184.411 25.9146C184.384 25.9561 184.349 25.9911 184.308 26.0178C184.268 26.0444 184.223 26.0621 184.176 26.0698C184.129 26.0774 184.081 26.0749 184.035 26.0623C184.035 26.0623 182.722 25.7459 182.043 26.5331C181.365 27.3203 181.451 28.6014 182.043 30.5386C182.274 31.3104 183.797 32.3986 184.699 32.9079C184.762 32.9462 184.813 33.0029 184.846 33.0713C184.879 33.1398 184.893 33.217 184.887 33.2938C184.887 33.5254 184.62 35.532 183.386 35.7944L183.306 35.7712Z" fill="#2E353A"/>
<path d="M181.083 39.7076C181.083 39.7076 178.052 40.3561 176.84 38.8428L181.083 39.7076Z" fill="white"/>
<path d="M179.633 40.2713C179.075 40.3186 178.515 40.2415 177.987 40.0447C177.459 39.848 176.975 39.5361 176.566 39.1286C176.535 39.0901 176.511 39.0454 176.497 38.9972C176.482 38.949 176.476 38.8982 176.48 38.8476C176.484 38.7971 176.497 38.7478 176.518 38.7026C176.54 38.6574 176.569 38.6172 176.605 38.5843C176.641 38.5513 176.683 38.5263 176.728 38.5106C176.773 38.4949 176.821 38.4888 176.868 38.4928C176.915 38.4967 176.961 38.5106 177.003 38.5336C177.046 38.5565 177.083 38.5882 177.114 38.6267C178.175 39.9547 180.99 39.3988 181.018 39.3988C181.065 39.3876 181.112 39.3866 181.159 39.3959C181.205 39.4051 181.249 39.4245 181.289 39.4527C181.328 39.4809 181.361 39.5174 181.387 39.5599C181.412 39.6024 181.429 39.6501 181.437 39.6999C181.447 39.7496 181.447 39.8008 181.438 39.8506C181.429 39.9004 181.411 39.9478 181.385 39.9901C181.358 40.0324 181.325 40.0688 181.285 40.0972C181.246 40.1255 181.202 40.1454 181.156 40.1555C180.652 40.2409 180.143 40.2796 179.633 40.2713Z" fill="#2E353A"/>
<path d="M176.638 29.5507C176.638 29.5507 174.415 28.6863 173.203 29.7668C172.554 30.2498 172.052 30.9261 171.759 31.7116" fill="white"/>
<path d="M171.788 32.0899H171.702C171.656 32.0773 171.612 32.0551 171.574 32.0246C171.536 31.9941 171.504 31.9559 171.48 31.9122C171.456 31.8684 171.44 31.82 171.434 31.7697C171.427 31.7194 171.43 31.6682 171.442 31.6191C171.744 30.7587 172.276 30.0125 172.972 29.4736C174.329 28.2696 176.667 29.1571 176.761 29.1957C176.806 29.2121 176.847 29.238 176.883 29.272C176.918 29.3059 176.947 29.3472 176.967 29.3934C176.987 29.4395 176.999 29.4895 177 29.5404C177.002 29.5914 176.994 29.6421 176.977 29.6897C176.945 29.7858 176.878 29.8643 176.791 29.9077C176.704 29.9511 176.605 29.9559 176.515 29.9212C176.515 29.9212 174.473 29.1494 173.434 30.0678C172.862 30.5116 172.415 31.115 172.142 31.812C172.119 31.8928 172.072 31.9634 172.008 32.0135C171.944 32.0635 171.867 32.0903 171.788 32.0899Z" fill="#2E353A"/>
<path d="M176.58 33.2475C176.869 33.9653 176.811 34.6753 176.45 34.8374C176.089 34.9994 175.57 34.5595 175.281 33.8418C174.992 33.124 175.057 32.4217 175.418 32.2519C175.779 32.0821 176.299 32.5529 176.58 33.2475Z" fill="#2E353A"/>
<path d="M183.847 29.4658C184.136 30.1759 184.071 30.8859 183.717 31.0557C183.364 31.2255 182.83 30.7702 182.548 30.0601C182.267 29.3501 182.317 28.6323 182.678 28.4703C183.039 28.3082 183.559 28.7558 183.847 29.4658Z" fill="#2E353A"/>
<path d="M167.48 36.759C167.48 36.759 169.89 34.8836 169.45 33.2398C169.01 31.5959 168.137 31.5959 169.017 30.662C169.897 29.7282 170.547 29.2497 170.33 27.845C170.114 26.4404 166.599 24.0865 167.696 22.6819C168.793 21.2773 168.353 19.5948 177.352 21.9719C186.352 24.3489 192.061 20.5672 189.426 17.0479C186.792 13.5286 184.598 13.0579 184.598 13.0579C184.598 13.0579 189.65 10.7425 185.479 8.35776C181.307 5.97297 171.868 6.04243 166.599 10.4724C161.331 14.9024 162.428 18.6609 162.428 18.6609C162.428 18.6609 159.577 19.1317 159.354 23.8318C159.13 28.5319 167.48 36.759 167.48 36.759Z" fill="#2E353A"/>
<path d="M181.841 21.038C179.923 20.9518 178.034 20.5024 176.262 19.7105C174.874 19.0774 173.395 18.7016 171.889 18.5992C168.403 18.5992 167.682 20.7138 167.653 20.8064C167.643 20.8394 167.627 20.8699 167.606 20.8961C167.585 20.9222 167.559 20.9436 167.53 20.9587C167.501 20.9739 167.469 20.9826 167.437 20.9843C167.405 20.9859 167.373 20.9806 167.342 20.9685C167.311 20.958 167.283 20.9411 167.258 20.9187C167.233 20.8963 167.213 20.8688 167.198 20.838C167.184 20.8071 167.175 20.7734 167.172 20.7389C167.17 20.7043 167.174 20.6696 167.184 20.6367C167.22 20.5363 168.028 18.0666 171.889 18.0666C173.453 18.1656 174.989 18.5547 176.428 19.2166C178.673 20.0733 181.004 20.9608 183.934 20.2662C185.522 19.888 186.453 19.2783 186.684 18.468C186.987 17.4261 186.049 16.3379 186.041 16.3224C185.996 16.2733 185.97 16.2067 185.97 16.1372C185.97 16.0678 185.996 16.0012 186.041 15.952C186.089 15.9042 186.153 15.8777 186.218 15.8777C186.284 15.8777 186.347 15.9042 186.395 15.952C186.438 16.006 187.535 17.2794 187.153 18.6146C186.857 19.6256 185.81 20.3511 184.035 20.7756C183.315 20.946 182.579 21.0339 181.841 21.038Z" fill="white"/>
<path d="M165.74 20.3897C165.674 20.3838 165.613 20.3506 165.57 20.2973C165.527 20.2439 165.505 20.1746 165.509 20.1042C165.509 20.0502 165.935 14.9565 170.157 13.8142C172.647 13.1428 175.526 13.6444 177.843 14.0458C179.286 14.3004 180.578 14.5243 181.119 14.3004C181.179 14.2868 181.241 14.2966 181.294 14.3279C181.347 14.3592 181.388 14.41 181.409 14.471C181.43 14.532 181.43 14.599 181.409 14.6598C181.387 14.7206 181.346 14.7712 181.293 14.8021C180.629 15.0645 179.366 14.8484 177.764 14.5706C175.49 14.1692 172.661 13.683 170.28 14.3236C166.397 15.3809 166.007 20.0965 166 20.1428C165.998 20.1773 165.99 20.211 165.976 20.2421C165.962 20.2732 165.942 20.301 165.918 20.3239C165.894 20.3469 165.866 20.3645 165.835 20.3758C165.805 20.3871 165.772 20.3918 165.74 20.3897Z" fill="white"/>
<path d="M162.947 28.3545C162.899 28.3536 162.851 28.3375 162.81 28.3082C162.162 27.7271 161.66 26.9824 161.349 26.1416C161.038 25.3007 160.927 24.3902 161.028 23.4923C161.23 20.0965 163.669 20.0579 163.698 20.0579C163.757 20.0686 163.81 20.1012 163.849 20.15C163.887 20.1987 163.908 20.2604 163.908 20.3242C163.908 20.3879 163.887 20.4496 163.849 20.4983C163.81 20.5471 163.757 20.5797 163.698 20.5904C163.611 20.5904 161.692 20.6367 161.533 23.5232C161.435 24.3307 161.527 25.1516 161.801 25.9116C162.074 26.6715 162.52 27.3467 163.099 27.876C163.126 27.8952 163.148 27.9201 163.166 27.949C163.183 27.9779 163.195 28.0103 163.2 28.0441C163.206 28.078 163.205 28.1128 163.197 28.1462C163.19 28.1796 163.176 28.2111 163.157 28.2387C163.135 28.2763 163.104 28.3069 163.067 28.3273C163.03 28.3476 162.989 28.357 162.947 28.3545Z" fill="white"/>
<path d="M164.441 26.1626C164.394 26.1626 164.348 26.148 164.308 26.1207C164.269 26.0933 164.237 26.0542 164.218 26.0082C164.04 25.6561 163.934 25.2674 163.908 24.8681C163.882 24.4688 163.936 24.0681 164.066 23.6929C164.384 22.9573 164.952 22.3781 165.654 22.0722C165.684 22.0585 165.716 22.0515 165.748 22.0515C165.78 22.0516 165.812 22.0587 165.842 22.0724C165.872 22.0861 165.899 22.1062 165.921 22.1314C165.943 22.1565 165.96 22.1863 165.971 22.2188C165.995 22.2833 165.994 22.3552 165.968 22.4188C165.943 22.4824 165.894 22.5326 165.834 22.5584C165.26 22.8187 164.793 23.2931 164.521 23.8935C164.419 24.2017 164.379 24.5296 164.403 24.8555C164.428 25.1814 164.518 25.498 164.665 25.7844C164.692 25.849 164.695 25.9223 164.672 25.9887C164.649 26.0551 164.602 26.1092 164.542 26.1394C164.511 26.1545 164.476 26.1624 164.441 26.1626Z" fill="white"/>
<path d="M164.997 30.3464C164.957 30.3455 164.918 30.3346 164.883 30.3144C164.848 30.2943 164.817 30.2656 164.795 30.2306L163.864 28.8409C163.825 28.7835 163.81 28.7123 163.821 28.6428C163.832 28.5733 163.868 28.5112 163.921 28.4703C163.975 28.4293 164.042 28.4128 164.107 28.4244C164.171 28.436 164.23 28.4747 164.268 28.532L165.199 29.9295C165.236 29.986 165.25 30.0557 165.239 30.1236C165.229 30.1915 165.193 30.2521 165.141 30.2924C165.1 30.328 165.049 30.3471 164.997 30.3464Z" fill="white"/>
<path d="M124.771 189.438L163.615 150.594C164.531 149.677 165.601 149.219 166.823 149.219C168.045 149.219 169.115 149.677 170.031 150.594C170.948 151.51 171.406 152.6 171.406 153.862C171.406 155.124 170.948 156.211 170.031 157.125L127.979 199.292C127.063 200.208 125.993 200.667 124.771 200.667C123.549 200.667 122.479 200.208 121.563 199.292L101.854 179.583C100.938 178.667 100.498 177.579 100.534 176.32C100.571 175.061 101.049 173.972 101.969 173.052C102.889 172.132 103.978 171.674 105.237 171.677C106.496 171.68 107.584 172.138 108.5 173.052L124.771 189.438Z" fill="white"/>
</svg>
