<svg width="300" height="318" viewBox="0 0 300 318" fill="none" xmlns="http://www.w3.org/2000/svg">
<path d="M250.527 92.5914C215.299 55.0204 161.881 32.9037 111.438 50.5303C69.4797 65.1722 34.7823 101.443 15.9155 141.862C2.64211 170.308 -4.71303 207.16 3.36906 238.163C10.3821 265.052 32.7896 277.008 58.4128 278.924C98.9344 281.96 139.601 277.564 180.149 278.343C208.928 278.89 252.845 289.538 278.502 272.45C302.749 256.303 301.235 221.135 298.575 195.332C294.624 156.838 276.424 120.224 250.527 92.5914Z" fill="#3253BD"/>
<path opacity="0.7" d="M250.527 92.5914C215.299 55.0204 161.881 32.9037 111.438 50.5303C69.4797 65.1722 34.7823 101.443 15.9155 141.862C2.64211 170.308 -4.71303 207.16 3.36906 238.163C10.3821 265.052 32.7896 277.008 58.4128 278.924C98.9344 281.96 139.601 277.564 180.149 278.343C208.928 278.89 252.845 289.538 278.502 272.45C302.749 256.303 301.235 221.135 298.575 195.332C294.624 156.838 276.424 120.224 250.527 92.5914Z" fill="white"/>
<path d="M37.4249 217.304H18.6094C18.496 217.304 18.3873 217.259 18.3071 217.178C18.2269 217.098 18.1818 216.989 18.1818 216.876V188.054H12.597C12.5167 188.055 12.4377 188.033 12.3694 187.991C12.3012 187.948 12.2466 187.887 12.2122 187.815C12.1707 187.746 12.1487 187.668 12.1487 187.588C12.1487 187.508 12.1707 187.43 12.2122 187.361L27.6066 167.93C27.6476 167.882 27.6987 167.843 27.7563 167.816C27.8139 167.789 27.8767 167.775 27.9402 167.775C28.0037 167.775 28.0665 167.789 28.1241 167.816C28.1817 167.843 28.2328 167.882 28.2737 167.93L43.6682 187.361C43.7179 187.424 43.7489 187.5 43.7577 187.58C43.7665 187.659 43.7528 187.74 43.718 187.812C43.6832 187.884 43.6288 187.945 43.561 187.988C43.4933 188.031 43.4148 188.054 43.3347 188.054H37.7242V216.876C37.7285 216.97 37.7015 217.063 37.6474 217.141C37.5932 217.218 37.515 217.275 37.4249 217.304ZM19.0542 216.448H37.0144V187.627C37.0144 187.513 37.0594 187.404 37.1396 187.324C37.2198 187.244 37.3286 187.199 37.442 187.199H42.5735L28.0343 168.888L13.4951 187.199H18.6265C18.74 187.199 18.8487 187.244 18.9289 187.324C19.0091 187.404 19.0542 187.513 19.0542 187.627V216.448Z" fill="#3253BD"/>
<path d="M226.298 217.304H207.482C207.369 217.304 207.26 217.259 207.18 217.178C207.1 217.098 207.055 216.989 207.055 216.876V188.054H201.444C201.364 188.054 201.286 188.031 201.218 187.988C201.15 187.945 201.096 187.884 201.061 187.812C201.026 187.74 201.012 187.659 201.021 187.58C201.03 187.5 201.061 187.424 201.111 187.361L216.548 167.93C216.589 167.882 216.64 167.843 216.698 167.816C216.755 167.789 216.818 167.775 216.882 167.775C216.945 167.775 217.008 167.789 217.065 167.816C217.123 167.843 217.174 167.882 217.215 167.93L232.652 187.361C232.702 187.424 232.733 187.5 232.742 187.58C232.751 187.659 232.737 187.74 232.702 187.812C232.667 187.884 232.613 187.945 232.545 187.988C232.477 188.031 232.399 188.054 232.319 188.054H226.708V216.876C226.708 216.987 226.666 217.093 226.589 217.173C226.513 217.252 226.408 217.299 226.298 217.304ZM207.927 216.448H225.887V187.627C225.887 187.513 225.932 187.404 226.013 187.324C226.093 187.244 226.202 187.199 226.315 187.199H231.446L216.907 168.888L202.368 187.199H207.499C207.613 187.199 207.722 187.244 207.802 187.324C207.882 187.404 207.927 187.513 207.927 187.627V216.448Z" fill="#3253BD"/>
<path d="M273.952 265.155H255.137C255.023 265.155 254.914 265.11 254.834 265.029C254.754 264.949 254.709 264.841 254.709 264.727V235.905H249.124C249.044 235.905 248.966 235.882 248.898 235.839C248.83 235.796 248.776 235.735 248.741 235.663C248.706 235.591 248.692 235.51 248.701 235.431C248.71 235.351 248.741 235.275 248.791 235.213L264.185 215.79C264.226 215.741 264.277 215.702 264.335 215.675C264.392 215.649 264.455 215.635 264.519 215.635C264.582 215.635 264.645 215.649 264.703 215.675C264.76 215.702 264.811 215.741 264.852 215.79L280.247 235.213C280.296 235.275 280.327 235.351 280.336 235.431C280.345 235.51 280.331 235.591 280.296 235.663C280.262 235.735 280.207 235.796 280.14 235.839C280.072 235.882 279.993 235.905 279.913 235.905H274.303V264.727C274.304 264.828 274.27 264.927 274.206 265.005C274.142 265.084 274.052 265.137 273.952 265.155ZM255.59 264.299H273.55V235.478C273.55 235.364 273.595 235.255 273.675 235.175C273.756 235.095 273.864 235.05 273.978 235.05H279.109L264.57 216.739L250.031 235.05H255.162C255.275 235.052 255.383 235.098 255.462 235.178C255.542 235.257 255.588 235.365 255.59 235.478V264.299Z" fill="#3253BD"/>
<path d="M254.427 153.391H235.611C235.498 153.391 235.389 153.346 235.309 153.266C235.229 153.186 235.184 153.077 235.184 152.963V124.141H229.573C229.492 124.142 229.412 124.119 229.344 124.075C229.276 124.031 229.222 123.968 229.188 123.893C229.154 123.821 229.141 123.74 229.15 123.66C229.159 123.58 229.19 123.504 229.24 123.44L244.634 104.018C244.676 103.969 244.728 103.93 244.786 103.903C244.844 103.876 244.908 103.862 244.972 103.862C245.036 103.862 245.1 103.876 245.158 103.903C245.216 103.93 245.268 103.969 245.31 104.018L260.704 123.44C260.753 123.504 260.783 123.58 260.792 123.66C260.8 123.74 260.786 123.82 260.752 123.893C260.717 123.965 260.664 124.027 260.596 124.071C260.529 124.115 260.451 124.139 260.371 124.141H254.76V152.963C254.763 153.062 254.731 153.159 254.67 153.237C254.609 153.315 254.523 153.369 254.427 153.391ZM236.065 152.536H254.025V123.714C254.025 123.6 254.07 123.492 254.15 123.412C254.23 123.331 254.339 123.286 254.452 123.286H259.584L245.045 104.967L230.506 123.286H235.637C235.75 123.286 235.859 123.331 235.939 123.412C236.02 123.492 236.065 123.6 236.065 123.714V152.536Z" fill="#3253BD"/>
<path d="M76.6721 156.752H57.8567C57.7433 156.752 57.6345 156.707 57.5543 156.627C57.4741 156.547 57.4291 156.438 57.4291 156.324V127.503H51.8272C51.7463 127.504 51.6667 127.482 51.5977 127.44C51.5286 127.398 51.473 127.337 51.4372 127.264C51.4013 127.192 51.3868 127.111 51.3953 127.03C51.4038 126.95 51.4349 126.873 51.4851 126.81L66.9223 107.379C66.9633 107.33 67.0143 107.291 67.0719 107.264C67.1296 107.237 67.1923 107.224 67.2559 107.224C67.3194 107.224 67.3822 107.237 67.4398 107.264C67.4974 107.291 67.5485 107.33 67.5894 107.379L83.0266 126.81C83.0763 126.873 83.1074 126.948 83.1162 127.028C83.125 127.108 83.1112 127.188 83.0764 127.261C83.0416 127.333 82.9873 127.394 82.9195 127.437C82.8517 127.479 82.7732 127.502 82.6931 127.503H77.0827V156.324C77.0827 156.435 77.04 156.541 76.9635 156.621C76.887 156.701 76.7826 156.748 76.6721 156.752ZM58.3014 155.897H76.2616V127.075C76.2616 126.962 76.3067 126.853 76.3869 126.773C76.4671 126.692 76.5758 126.647 76.6892 126.647H81.8207L67.2815 108.337L52.7423 126.647H57.8738C57.9872 126.647 58.096 126.692 58.1762 126.773C58.2564 126.853 58.3014 126.962 58.3014 127.075V155.897Z" fill="#3253BD"/>
<path d="M106.606 265.155H87.7904C87.677 265.155 87.5682 265.11 87.488 265.029C87.4078 264.949 87.3628 264.841 87.3628 264.727V235.905H81.7523C81.6722 235.905 81.5937 235.882 81.5259 235.839C81.4582 235.796 81.4038 235.735 81.369 235.663C81.3342 235.591 81.3204 235.51 81.3292 235.431C81.338 235.351 81.3691 235.275 81.4188 235.213L96.856 215.79C96.8969 215.741 96.948 215.702 97.0056 215.675C97.0632 215.649 97.126 215.635 97.1895 215.635C97.2531 215.635 97.3159 215.649 97.3735 215.675C97.4311 215.702 97.4821 215.741 97.5231 215.79L112.96 235.213C113.01 235.276 113.042 235.352 113.05 235.433C113.059 235.513 113.044 235.595 113.008 235.667C112.972 235.74 112.917 235.8 112.848 235.843C112.779 235.885 112.699 235.907 112.618 235.905H107.016V264.727C107.016 264.838 106.974 264.944 106.897 265.024C106.821 265.103 106.716 265.15 106.606 265.155ZM88.2351 264.299H106.195V235.478C106.195 235.364 106.24 235.255 106.321 235.175C106.401 235.095 106.51 235.05 106.623 235.05H111.754L97.2152 216.739L82.676 235.05H87.8075C87.9209 235.05 88.0297 235.095 88.1099 235.175C88.19 235.255 88.2351 235.364 88.2351 235.478V264.299Z" fill="#3253BD"/>
<path d="M152.653 317.41C200.831 317.41 239.888 312.881 239.888 307.293C239.888 301.705 200.831 297.175 152.653 297.175C104.474 297.175 65.4174 301.705 65.4174 307.293C65.4174 312.881 104.474 317.41 152.653 317.41Z" fill="#3253BD"/>
<path opacity="0.5" d="M152.653 317.41C200.831 317.41 239.888 312.881 239.888 307.293C239.888 301.705 200.831 297.175 152.653 297.175C104.474 297.175 65.4174 301.705 65.4174 307.293C65.4174 312.881 104.474 317.41 152.653 317.41Z" fill="white"/>
<path d="M208.475 64.4709C209.645 58.239 208.949 51.8003 206.475 45.9622C204 40.1242 199.857 35.1467 194.565 31.6539C189.273 28.1611 183.067 26.3086 176.726 26.3285C170.386 26.3485 164.192 28.2401 158.922 31.7662C155.094 22.4619 148.156 14.7743 139.292 10.0157C130.427 5.2571 120.186 3.72239 110.316 5.67355C100.447 7.62471 91.5598 12.9408 85.1729 20.7144C78.786 28.488 75.295 38.2373 75.2957 48.2981C75.2957 48.8369 75.2957 49.3672 75.2957 49.8974C69.056 51.6757 63.6174 55.5452 59.8918 60.8572C56.1663 66.1691 54.3804 72.6005 54.8335 79.0728C55.2866 85.5451 57.9513 91.6648 62.3807 96.4058C66.81 101.147 72.7348 104.221 79.1614 105.112V105.412H207.089C212.287 105.231 217.222 103.085 220.898 99.4059C224.574 95.727 226.716 90.79 226.892 85.5923C227.068 80.3947 225.264 75.3241 221.846 71.405C218.427 67.486 213.648 65.0107 208.475 64.4794V64.4709Z" fill="#263238" stroke="#263238" stroke-linecap="round" stroke-linejoin="round"/>
<path d="M208.475 60.6222C209.645 54.3903 208.949 47.9516 206.475 42.1136C204 36.2755 199.857 31.298 194.565 27.8053C189.273 24.3125 183.067 22.4599 176.726 22.4799C170.385 22.4999 164.192 24.3915 158.922 27.9176C155.094 18.6139 148.157 10.9268 139.293 6.1681C130.43 1.4094 120.19 -0.12594 110.32 1.82411C100.451 3.77415 91.5644 9.08871 85.1769 16.8608C78.7893 24.6329 75.2969 34.3808 75.2955 44.441C75.2955 44.9798 75.2955 45.51 75.2955 46.0403C69.0558 47.8185 63.6172 51.6881 59.8917 57C56.1662 62.3119 54.3802 68.7433 54.8334 75.2156C55.2865 81.6879 57.9512 87.8077 62.3805 92.5486C66.8099 97.2896 72.7346 100.364 79.1613 101.255V101.554H207.089C212.287 101.374 217.222 99.2277 220.898 95.5488C224.574 91.8699 226.716 86.9328 226.892 81.7352C227.068 76.5376 225.264 71.4669 221.846 67.5479C218.427 63.6288 213.648 61.1536 208.475 60.6222Z" fill="#3253BD" stroke="#263238" stroke-linecap="round" stroke-linejoin="round"/>
<path d="M164.113 175.268L158.733 178.091C158.733 178.091 152.841 180.656 148.992 182.7C145.144 184.744 126.183 199.361 126.183 199.361L122.343 199.617L120.033 201.157C120.033 201.157 116.185 201.926 116.185 202.696C116.185 203.466 116.955 203.714 117.724 203.714C118.882 203.422 120.002 202.994 121.06 202.439C121.06 202.439 118.451 206.254 119.478 206.254C120.964 206.408 122.44 206.645 123.899 206.964C125.597 206.647 127.31 206.419 129.031 206.279C130.314 206.279 133.384 199.361 133.384 199.361C133.384 199.361 155.424 190.646 158.246 188.593C161.068 186.54 169.261 181.417 169.261 181.417L164.113 175.268Z" fill="white" stroke="#263238" stroke-linecap="round" stroke-linejoin="round"/>
<path d="M184.801 154.212L160.777 176.038L167.705 184.24L181.029 179.117L185.639 154.511L184.801 154.212Z" fill="#3253BD" stroke="#263238" stroke-linecap="round" stroke-linejoin="round"/>
<path d="M163.984 173.13L160.777 176.038L167.705 184.24L171.836 182.649L163.984 173.13Z" fill="#263238" stroke="#263238" stroke-linecap="round" stroke-linejoin="round"/>
<path d="M226.734 290.786C226.734 290.786 234.363 298.723 235.141 302.615C235.919 306.506 234.055 309.936 230.942 308.995C227.829 308.054 225.023 298.415 224.245 296.705C223.467 294.994 222.535 293.121 222.535 293.121C222.535 293.121 224.869 290.008 226.734 290.786Z" fill="#3253BD" stroke="#263238" stroke-linecap="round" stroke-linejoin="round"/>
<path d="M235.209 303.034C235.774 306.745 233.935 309.876 230.933 309.02C229.847 308.704 228.804 307.31 227.871 305.599C229.907 302.307 233.183 302.486 235.209 303.034Z" fill="white" stroke="#263238" stroke-linecap="round" stroke-linejoin="round"/>
<path d="M226.811 303.35C228.521 305.685 230.694 308.191 232.336 307.755C233.978 307.318 234.842 304.231 235.141 302.623C235.911 306.506 234.046 309.91 230.942 308.978C229.419 308.541 227.983 306.018 226.811 303.35Z" fill="white" stroke="#263238" stroke-linecap="round" stroke-linejoin="round"/>
<path d="M225.178 295.148C225.178 295.148 228.599 293.275 228.761 293.9C228.923 294.524 225.494 296.234 225.024 296.234C224.553 296.234 224.245 296.081 225.178 295.148Z" fill="white" stroke="#263238" stroke-width="0.5" stroke-linecap="round" stroke-linejoin="round"/>
<path d="M225.956 296.234C225.956 296.234 229.377 294.37 229.539 294.994C229.702 295.619 226.272 297.329 225.802 297.329C225.331 297.329 225.023 297.175 225.956 296.234Z" fill="white" stroke="#263238" stroke-width="0.5" stroke-linecap="round" stroke-linejoin="round"/>
<path d="M226.734 297.329C226.734 297.329 230.155 295.456 230.317 296.08C230.48 296.705 227.05 298.415 226.58 298.415C226.11 298.415 225.802 298.261 226.734 297.329Z" fill="white" stroke="#263238" stroke-width="0.5" stroke-linecap="round" stroke-linejoin="round"/>
<path d="M227.512 298.415C227.512 298.415 230.933 296.551 231.096 297.167C231.258 297.782 227.829 299.501 227.359 299.501C226.888 299.501 226.58 299.348 227.512 298.415Z" fill="white" stroke="#263238" stroke-width="0.5" stroke-linecap="round" stroke-linejoin="round"/>
<path d="M165.267 297.928C165.267 297.928 168.244 302.076 168.509 304.428C168.774 306.78 166.798 306.839 164.284 306.574C161.769 306.309 158.767 308.165 155.227 308.071C151.686 307.977 147.589 306.429 149.556 304.744C151.523 303.059 156.655 301.674 157.767 300.707C158.43 300.126 159.053 299.501 159.631 298.834L165.267 297.928Z" fill="#3253BD" stroke="#263238" stroke-linecap="round" stroke-linejoin="round"/>
<path d="M149.556 304.744C150.248 304.201 151.007 303.749 151.814 303.401C152.718 303.886 153.514 304.55 154.152 305.353C154.791 306.156 155.258 307.081 155.526 308.071H155.218C151.677 307.977 147.589 306.429 149.556 304.744Z" fill="white" stroke="#263238" stroke-linecap="round" stroke-linejoin="round"/>
<path d="M158.092 300.16C158.092 300.16 161.744 302.067 160.82 302.444C159.897 302.82 157.126 300.682 158.092 300.16Z" fill="white" stroke="#263238" stroke-width="0.5" stroke-linecap="round" stroke-linejoin="round"/>
<path d="M156.672 300.545C156.672 300.545 160.324 302.452 159.401 302.828C158.477 303.205 155.706 301.067 156.672 300.545Z" fill="white" stroke="#263238" stroke-width="0.5" stroke-linecap="round" stroke-linejoin="round"/>
<path d="M155.851 301.109C155.851 301.109 159.503 303.017 158.579 303.393C157.656 303.769 154.885 301.631 155.851 301.109Z" fill="white" stroke="#263238" stroke-width="0.5" stroke-linecap="round" stroke-linejoin="round"/>
<path d="M154.363 301.794C154.363 301.794 158.015 303.701 157.091 304.077C156.167 304.453 153.379 302.307 154.363 301.794Z" fill="white" stroke="#263238" stroke-width="0.5" stroke-linecap="round" stroke-linejoin="round"/>
<path d="M149.146 305.266C151.706 306.773 154.752 307.224 157.638 306.523C160.319 305.934 163.041 305.557 165.78 305.394C166.712 305.367 167.636 305.212 168.526 304.932C168.457 306.788 166.61 306.822 164.25 306.574C161.735 306.301 158.733 308.165 155.192 308.071C152.045 307.986 148.453 306.737 149.146 305.266Z" fill="white" stroke="#263238" stroke-linecap="round" stroke-linejoin="round"/>
<path d="M202.668 206.519C202.668 206.519 200.872 231.526 201.958 237.59C203.044 243.654 205.721 261.708 205.721 261.708C205.721 261.708 209.775 264.667 213.82 271.201C217.865 277.735 226.734 290.812 226.734 290.812C226.734 290.812 227.051 293.147 224.245 293.925C224.245 293.925 222.843 294.55 222.065 293.925C221.286 293.301 194.697 268.713 191.558 263.581C188.419 258.45 184.246 226.874 184.246 226.874L180.2 226.096L163.095 258.783L166.072 298.518C166.072 298.518 166.302 299.886 164.361 300.442C162.42 300.998 160.855 301.195 159.691 300.194C158.528 299.194 149.522 255.679 150.284 254.122C151.045 252.565 168.304 209.786 168.304 209.786L169.698 206.211C169.698 206.211 186.042 208.075 193.354 206.673C200.666 205.27 202.052 204.158 202.668 206.519Z" fill="#263238" stroke="#263238" stroke-linecap="round" stroke-linejoin="round"/>
<path d="M180.2 226.07L171.323 223.427" stroke="white" stroke-linecap="round" stroke-linejoin="round"/>
<path d="M179.259 226.54L167.123 225.138" stroke="white" stroke-linecap="round" stroke-linejoin="round"/>
<path d="M199.879 211.36C199.879 211.36 193.311 215.55 199.879 218.347" stroke="white" stroke-linecap="round" stroke-linejoin="round"/>
<path d="M181.286 213.07L180.277 217.107L177.575 219.81L180.944 222.837" stroke="white" stroke-linecap="round" stroke-linejoin="round"/>
<path d="M219.764 165.228C213.777 160.37 206.345 154.503 206.345 154.503C206.345 154.503 190.583 154.144 184.801 154.212L176.676 180.143C176.676 180.143 169.21 205.972 169.518 207.066C169.826 208.161 175.128 210.641 186.957 212.044C198.785 213.446 203.762 208.469 204.061 206.912C204.191 205.502 204.087 204.081 203.754 202.705L207.799 195.546L221.184 173.532C221.991 172.21 222.292 170.64 222.031 169.114C221.77 167.587 220.965 166.206 219.764 165.228Z" fill="#3253BD" stroke="#263238" stroke-linecap="round" stroke-linejoin="round"/>
<path d="M215.086 161.439C210.501 157.761 206.371 154.503 206.371 154.503C206.371 154.503 201.137 154.383 195.603 154.298C194.2 157.496 191.78 164.03 193.773 167.263C196.202 171.249 204.233 172.437 215.086 161.439Z" fill="#263238" stroke="#263238" stroke-linecap="round" stroke-linejoin="round"/>
<path d="M207.961 127.836C207.961 127.836 203.454 129.085 201.581 131.881C199.708 134.678 194.269 151.03 194.423 152.407C194.577 153.784 201.581 152.407 201.581 152.407C201.581 152.407 196.758 162.525 196.758 164.236C196.758 165.946 198.938 166.887 201.735 166.262C204.532 165.638 214.085 149.217 214.085 149.217C214.085 149.217 216.916 152.502 218.703 151.373C220.756 150.081 220.106 147.481 218.549 147.481C216.993 147.481 222.903 141.101 220.884 136.902C218.866 132.703 209.834 126.442 207.961 127.836Z" fill="white" stroke="#263238" stroke-linecap="round" stroke-linejoin="round"/>
<path d="M206.251 122.867C206.251 122.867 197.536 122.867 197.065 127.066C196.595 131.266 201.119 133.139 206.097 132.36C211.074 131.582 215.59 131.89 216.214 132.668C216.839 133.447 210.142 135.003 211.699 136.089C212.604 136.739 213.699 137.07 214.812 137.03C214.812 137.03 212.631 137.646 212.785 139.202C212.939 140.759 214.299 147.635 215.351 147.635C216.403 147.635 218.515 147.498 218.515 147.498C220.485 146.507 222.275 145.192 223.809 143.607C226.144 141.118 226.76 135.824 223.809 132.72C220.858 129.615 218.515 126.596 216.18 124.107C213.845 121.619 211.665 118.976 206.995 118.351C202.325 117.727 199.871 119.592 206.251 122.867Z" fill="#263238" stroke="#263238" stroke-linecap="round" stroke-linejoin="round"/>
<path d="M224.425 138.954C224.586 139.866 224.618 140.796 224.519 141.717" stroke="white" stroke-linecap="round" stroke-linejoin="round"/>
<path d="M208.432 127.776C208.432 127.776 198.879 128.709 202.445 130.53C206.012 132.352 211.579 128.939 218.532 131.693C219.705 132.117 220.776 132.782 221.677 133.645C222.577 134.508 223.286 135.551 223.758 136.705" stroke="white" stroke-linecap="round" stroke-linejoin="round"/>
<path d="M214.23 135.029C214.23 135.029 220.756 138.219 221.62 142.854" stroke="white" stroke-linecap="round" stroke-linejoin="round"/>
<path d="M201.581 152.433C201.581 152.433 209.056 151.971 211.074 150.261" stroke="#263238" stroke-linecap="round" stroke-linejoin="round"/>
<path d="M199.247 146.207C199.247 146.207 204.695 147.763 206.251 144.496" stroke="#263238" stroke-linecap="round" stroke-linejoin="round"/>
<path d="M205.319 143.872L207.654 144.813" stroke="#263238" stroke-linecap="round" stroke-linejoin="round"/>
<path d="M200.957 139.048C200.957 139.048 196.133 139.673 196.133 140.451C196.133 141.229 199.247 143.41 199.247 143.41" fill="white"/>
<path d="M200.957 139.048C200.957 139.048 196.133 139.673 196.133 140.451C196.133 141.229 199.247 143.41 199.247 143.41" stroke="#263238" stroke-linecap="round" stroke-linejoin="round"/>
<path d="M201.573 137.552C201.35 138.227 200.897 138.681 200.555 138.57C200.213 138.458 200.127 137.825 200.358 137.15C200.589 136.474 201.034 136.021 201.376 136.132C201.718 136.243 201.804 136.885 201.573 137.552Z" fill="#263238"/>
<path d="M205.678 139.63C205.447 140.306 204.994 140.759 204.66 140.648C204.326 140.537 204.232 139.895 204.455 139.228C204.677 138.561 205.139 138.099 205.472 138.21C205.806 138.322 205.892 138.954 205.678 139.63Z" fill="#263238"/>
<path d="M205.892 135.208C205.892 135.208 208.252 135.422 208.03 138.629L205.892 135.208Z" fill="#263238" stroke="#263238" stroke-linecap="round" stroke-linejoin="round"/>
<path d="M203.754 133.712C203.754 133.712 202.462 132.001 200.752 134.353L203.754 133.712Z" fill="#263238" stroke="#263238" stroke-linecap="round" stroke-linejoin="round"/>
<path d="M160.803 76.7864L138.276 48.435L115.757 76.7864H124.566V119.472H151.994V76.7864H160.803Z" fill="#263238" stroke="#263238" stroke-linecap="round" stroke-linejoin="round"/>
<path d="M160.803 74.9476L138.276 46.5962L115.757 74.9476H124.566V117.633H151.994V74.9476H160.803Z" fill="white" stroke="#263238" stroke-linecap="round" stroke-linejoin="round"/>
<path d="M182.21 112.818H90.6042V204.424H182.21V112.818Z" fill="white" stroke="#263238" stroke-linecap="round" stroke-linejoin="round"/>
<path d="M177.951 117.077H94.8633V200.164H177.951V117.077Z" fill="#263238" stroke="#263238" stroke-linecap="round" stroke-linejoin="round"/>
<path d="M158.682 145.052L139.302 165.305L124.215 161.08C123.472 160.872 122.691 160.836 121.932 160.972C121.172 161.108 120.453 161.414 119.828 161.866L94.8633 180.006V200.199H177.951V157.436L166.063 145.044C165.584 144.549 165.01 144.156 164.375 143.887C163.741 143.619 163.059 143.481 162.37 143.482C161.682 143.483 161 143.622 160.366 143.892C159.733 144.162 159.16 144.556 158.682 145.052Z" fill="white" stroke="#263238" stroke-linecap="round" stroke-linejoin="round"/>
<path d="M135.369 143.411C137.569 138.054 135.009 131.928 129.652 129.729C124.295 127.53 118.169 130.09 115.97 135.447C113.771 140.804 116.33 146.929 121.687 149.129C127.044 151.328 133.17 148.768 135.369 143.411Z" fill="white" stroke="#263238" stroke-linecap="round" stroke-linejoin="round"/>
<path d="M208.32 169.187L185.425 192.724L150.531 202.337C150.531 202.337 147.418 198.719 145.177 198.693C142.937 198.668 135.718 201.259 135.718 201.259C135.718 201.259 134.803 203.5 136.574 203.517C138.394 203.389 140.2 203.103 141.97 202.662L132.075 204.372C132.194 205.126 132.577 205.812 133.155 206.31C133.733 206.808 134.468 207.085 135.231 207.092H139.687L147.307 208.058L154.517 205.878C154.517 205.878 188.675 202.157 190.48 201.721C192.285 201.285 221.269 176.406 221.269 176.406C221.269 176.406 224.544 173.524 223.296 170.18C222.047 166.835 215.658 164.466 215.658 164.466" fill="white"/>
<path d="M208.32 169.187L185.425 192.724L150.531 202.337C150.531 202.337 147.418 198.719 145.177 198.693C142.937 198.668 135.718 201.259 135.718 201.259C135.718 201.259 134.803 203.5 136.574 203.517C138.394 203.389 140.2 203.103 141.97 202.662L132.075 204.372C132.194 205.126 132.577 205.812 133.155 206.31C133.733 206.808 134.468 207.085 135.231 207.092H139.687L147.307 208.058L154.517 205.878C154.517 205.878 188.675 202.157 190.48 201.721C192.285 201.285 221.269 176.406 221.269 176.406C221.269 176.406 224.544 173.524 223.296 170.18C222.047 166.835 215.658 164.466 215.658 164.466" stroke="#263238" stroke-linecap="round" stroke-linejoin="round"/>
<path d="M204.19 171.642L186.734 189.149L199.691 198.497L222.201 177.295C223.3 176.266 224.014 174.893 224.224 173.402C224.434 171.912 224.128 170.394 223.356 169.102L223.279 168.982C221.665 166.422 219.382 164.352 216.676 162.995" fill="#3253BD"/>
<path d="M204.19 171.642L186.734 189.149L199.691 198.497L222.201 177.295C223.3 176.266 224.014 174.893 224.224 173.402C224.434 171.912 224.128 170.394 223.356 169.102L223.279 168.982C221.665 166.422 219.382 164.352 216.676 162.995" stroke="#263238" stroke-linecap="round" stroke-linejoin="round"/>
<path d="M199.725 198.497L202.77 195.623L189.745 186.13L186.734 189.149L199.725 198.497Z" fill="#263238" stroke="#263238" stroke-linecap="round" stroke-linejoin="round"/>
<path d="M116.185 202.696L119.478 206.254L122.668 206.604L117.716 202.362L116.185 202.696Z" fill="white" stroke="#263238" stroke-linecap="round" stroke-linejoin="round"/>
<path d="M122.377 202.696L125.669 206.254L128.851 206.604L123.899 202.362L122.377 202.696Z" fill="white" stroke="#263238" stroke-linecap="round" stroke-linejoin="round"/>
<path d="M122.667 206.604L118.947 201.832H121.248L125.849 206.604L123.899 206.964L122.667 206.604Z" fill="white" stroke="#263238" stroke-linecap="round" stroke-linejoin="round"/>
<path d="M114.885 203.072L116.476 206.074L119.477 206.254L116.185 202.696L114.885 203.072Z" fill="white" stroke="#263238" stroke-linecap="round" stroke-linejoin="round"/>
</svg>
