<svg width="24" height="24" viewBox="0 0 24 24" fill="none" xmlns="http://www.w3.org/2000/svg">
<path d="M8.5 17V6H9C9 5.16667 9.29167 4.45833 9.875 3.875C10.4583 3.29167 11.1667 3 12 3C12.8333 3 13.5417 3.29167 14.125 3.875C14.7083 4.45833 15 5.16667 15 6H15.5V17H8.5ZM10.5 6H13.5C13.5 5.56667 13.3583 5.20833 13.075 4.925C12.7917 4.64167 12.4333 4.5 12 4.5C11.5667 4.5 11.2083 4.64167 10.925 4.925C10.6417 5.20833 10.5 5.56667 10.5 6ZM17 17V6H18C18.55 6 19.021 6.196 19.413 6.588C19.805 6.98 20.0007 7.45067 20 8V15C20 15.55 19.8043 16.021 19.413 16.413C19.0217 16.805 18.5507 17.0007 18 17H17ZM6 17C5.45 17 4.97933 16.8043 4.588 16.413C4.19667 16.0217 4.00067 15.5507 4 15V8C4 7.45 4.196 6.97933 4.588 6.588C4.98 6.19667 5.45067 6.00067 6 6H7V17H6ZM2 21V19H22V21H2Z" fill="#3253BD"/>
</svg>
