<svg width="24" height="24" viewBox="0 0 24 24" fill="none" xmlns="http://www.w3.org/2000/svg">
<path d="M3.4679 16.745C3.9629 15.787 5.0079 15.145 6.2719 15.304C7.60845 15.4672 8.93411 15.7096 10.2419 16.03C12.2519 16.532 14.0129 17.497 15.3149 18.378L15.7549 18.684L16.1549 18.979L16.5129 19.255L16.8269 19.509L17.0939 19.735L17.3139 19.927C18.1569 20.678 17.5839 21.905 16.6289 21.995L16.5169 22H7.9229C6.2409 22 4.8429 21.155 3.8189 19.874C3.0449 18.907 2.9789 17.691 3.4689 16.745H3.4679ZM18.9999 2C19.8929 2 20.2779 2.84 20.4669 3.61L20.5269 3.878L20.5509 4.006C20.6949 4.803 20.7719 5.848 20.8029 6.922C20.8629 9.047 20.7409 11.524 20.4759 12.717C20.0139 14.799 19.3359 16.246 18.5239 17.118C17.6979 18.008 16.5819 18.409 15.5529 17.894C14.7639 17.5 14.2929 16.563 14.0349 15.764C13.6581 14.5995 13.664 13.3449 14.0519 12.184C14.2619 11.552 14.6399 11.042 15.0559 10.557L15.4189 10.146C15.8609 9.651 16.3039 9.156 16.6059 8.553C17.0459 7.673 17.1659 6.71 17.2029 5.743L17.2169 5.163L17.2259 4.603L17.2319 4.465L17.2519 4.185C17.3469 3.107 17.7159 2 18.9999 2Z" fill="#3253BD"/>
</svg>
