<svg width="24" height="24" viewBox="0 0 24 24" fill="none" xmlns="http://www.w3.org/2000/svg">
<path fill-rule="evenodd" clip-rule="evenodd" d="M2 5C2 4.73478 2.10536 4.48043 2.29289 4.29289C2.48043 4.10536 2.73478 4 3 4H21C21.2652 4 21.5196 4.10536 21.7071 4.29289C21.8946 4.48043 22 4.73478 22 5V18C22 18.2652 21.8946 18.5196 21.7071 18.7071C21.5196 18.8946 21.2652 19 21 19H3C2.73478 19 2.48043 18.8946 2.29289 18.7071C2.10536 18.5196 2 18.2652 2 18V5ZM8 21.05C8 20.636 8.344 20.3 8.753 20.3H15.247C15.3457 20.2996 15.4436 20.3187 15.5349 20.3562C15.6263 20.3937 15.7093 20.4489 15.7793 20.5186C15.8492 20.5883 15.9047 20.6711 15.9426 20.7623C15.9805 20.8535 16 20.9513 16 21.05V21.8H8V21.05Z" fill="#3253BD"/>
</svg>
